<?xml version="1.0" encoding="UTF-8"?>
<svg version="1.1" xmlns="http://www.w3.org/2000/svg" width="642" height="688">
<path d="M0 0 C0.823862 -0.00067474 1.647724 -0.00134949 2.49655151 -0.00204468 C15.28252755 0.01456956 27.64606901 0.56292832 40.1875 3.25 C40.9928418 3.41628906 41.79818359 3.58257812 42.62792969 3.75390625 C88.66714505 13.50721198 129.0639131 39.34041186 158.1875 76.25 C158.98027344 77.22582031 159.77304687 78.20164062 160.58984375 79.20703125 C193.63880532 120.7140209 207.68026527 172.96080926 201.81933594 225.55371094 C193.13052241 294.60054698 158.62278764 357.42472003 117.1875 412.25 C116.14618775 413.65328127 115.10682422 415.05801292 114.0703125 416.46484375 C108.54306373 423.93966877 102.84499256 431.18352047 96.77734375 438.2265625 C94.32211342 441.09284949 91.93454147 444.00225284 89.5625 446.9375 C85.93681653 451.39191113 82.16320347 455.67948601 78.296875 459.92578125 C76.44123343 461.97042335 74.61993624 464.03784149 72.8125 466.125 C62.43066068 477.98465368 51.4358746 489.15768073 40.2800293 500.2878418 C37.49216626 503.0703186 34.70972258 505.8581351 31.92773438 508.64648438 C30.13573741 510.43782092 28.34343047 512.22884744 26.55078125 514.01953125 C25.72975418 514.84258255 24.90872711 515.66563385 24.06282043 516.5136261 C19.8232159 520.73620094 15.51786652 524.81339689 10.96842957 528.70146179 C8.54022477 530.81281307 6.23180115 533.03817357 3.92578125 535.28125 C2.1875 536.25 2.1875 536.25 -0.18261719 536.00415039 C-3.09484269 535.16903485 -4.42843027 534.2023994 -6.62890625 532.15234375 C-7.31742676 531.51925293 -8.00594727 530.88616211 -8.71533203 530.23388672 C-9.40739746 529.5792041 -10.09946289 528.92452148 -10.8125 528.25 C-11.78292236 527.35112061 -11.78292236 527.35112061 -12.77294922 526.43408203 C-14.77640413 524.57168001 -16.76480247 522.69434361 -18.75 520.8125 C-20.244586 519.39822012 -21.73938377 517.98416401 -23.234375 516.5703125 C-23.99169922 515.85391602 -24.74902344 515.13751953 -25.52929688 514.39941406 C-27.74364659 512.3148188 -29.97071636 510.24491577 -32.203125 508.1796875 C-40.86093568 500.15100127 -49.09568327 491.88056955 -57.0546875 483.16064453 C-58.88392055 481.17236983 -60.73500195 479.20678844 -62.59375 477.24609375 C-70.07986243 469.3482594 -77.32718004 461.31107379 -84.33886719 452.98974609 C-85.87387191 451.17754535 -87.42301295 449.37835261 -88.9765625 447.58203125 C-89.50354736 446.97182129 -90.03053223 446.36161133 -90.57348633 445.73291016 C-91.56156989 444.5895008 -92.55086068 443.44713276 -93.54174805 442.30615234 C-96.83915092 438.47769834 -99.96036455 434.53281003 -103.04711914 430.53295898 C-104.70532245 428.3886001 -106.38175805 426.26032997 -108.06640625 424.13671875 C-160.85250251 357.3086497 -211.70028555 268.99769582 -202.08984375 180.48046875 C-195.27466375 125.67106341 -167.09567159 75.72515087 -123.36328125 41.515625 C-86.99805407 13.79992756 -45.68228261 0.03364064 0 0 Z M-76.8125 121.25 C-77.32651367 121.68038574 -77.84052734 122.11077148 -78.37011719 122.55419922 C-101.19513216 141.82754467 -115.64237286 170.20748726 -118.6315918 199.91503906 C-121.07447942 231.44510285 -113.17273399 262.57428163 -92.8125 287.25 C-89.26508409 291.37974774 -85.60783964 295.34729573 -81.8125 299.25 C-81.05582031 300.03246094 -80.29914063 300.81492187 -79.51953125 301.62109375 C-56.00096928 324.33006667 -24.16550749 331.93620327 7.515625 331.52734375 C37.30838483 330.7945556 65.36000795 316.11174779 86.1875 295.25 C89.35443166 291.70282818 92.30651318 288.03196959 95.1875 284.25 C95.79335938 283.45980469 96.39921875 282.66960937 97.0234375 281.85546875 C115.78925238 256.25414212 122.70934293 224.81771546 118 193.5625 C113.79283021 168.65758012 102.6344367 147.49556408 85.1875 129.25 C84.5378125 128.52554688 83.888125 127.80109375 83.21875 127.0546875 C63.14702564 105.51618328 33.71922238 94.18166213 4.68359375 92.96484375 C-25.57526038 92.22489614 -53.68268793 101.54600463 -76.8125 121.25 Z " fill="#EB1D27" transform="translate(311.8125,40.75)"/>
<path d="M0 0 C2.47126451 1.88219868 4.4274848 4.07945205 6.4375 6.4375 C6.97826172 7.03626953 7.51902344 7.63503906 8.07617188 8.25195312 C12 12.68176162 12 12.68176162 12 15 C11.24082275 15.15557373 10.48164551 15.31114746 9.69946289 15.47143555 C-32.03010469 22.72252191 -32.03010469 22.72252191 -65.98828125 46.12109375 C-67.96535637 49.79280469 -68.11561334 53.01271529 -67 57 C-58.70503839 71.61105982 -36.21827141 78.93851724 -20.86181641 83.2734375 C42.06962419 99.98316298 131.89987892 103.63343049 190.59765625 70.16015625 C195.88613923 66.94658047 202.17942183 62.64115634 205 57 C205.37942283 52.44692607 205.49103644 49.98207287 203.4375 45.875 C185.49468881 24.71168424 151.62266487 20.00829462 126 15 C127.78042511 11.22586182 130.02885668 8.43836034 132.8125 5.3125 C133.66457031 4.33925781 134.51664063 3.36601563 135.39453125 2.36328125 C138.23120005 -0.20970919 139.22937858 -0.89070663 143 -1 C145.84030662 -0.62927139 148.52379854 -0.17191852 151.3125 0.4375 C152.13210205 0.61506836 152.9517041 0.79263672 153.79614258 0.97558594 C178.70786473 6.67208344 207.40291565 15.85474471 222.37890625 38.04296875 C226.05782497 44.87524636 226.00410457 52.45754012 225 60 C220.61582478 74.04590476 209.55659482 82.39195322 197 89 C158.25860724 109.03798447 111.97827645 113.24461469 69 113.1875 C67.72508194 113.18659363 67.72508194 113.18659363 66.42440796 113.18566895 C52.20015412 113.15838468 38.13910956 112.65738998 24 111 C22.9078418 110.87641113 21.81568359 110.75282227 20.69042969 110.62548828 C-13.55688085 106.62463425 -58.09147009 99.41851614 -81.53125 71.05859375 C-86.05656464 64.715932 -88.3112041 57.8160107 -88 50 C-86.90060175 43.89924086 -84.83775562 38.90379885 -81 34 C-80.51789063 33.37480469 -80.03578125 32.74960937 -79.5390625 32.10546875 C-65.66008477 15.0662543 -22.09023894 -6.37604624 0 0 Z " fill="#E91F29" transform="translate(243,528)"/>
<path d="M0 0 C13.42632905 4.55879654 26.00094139 10.07186191 37.06738281 19.04150391 C37.76992188 19.60224609 38.47246094 20.16298828 39.19628906 20.74072266 C45.39147905 26.26688565 49.3575582 33.54436004 50.64941406 41.72900391 C51.10300376 52.02443513 48.47793587 59.46188859 42.12207031 67.50244141 C36.35914964 73.73320066 29.42261583 77.9181157 22.06738281 82.04150391 C21.25269531 82.51072266 20.43800781 82.97994141 19.59863281 83.46337891 C14.66353484 86.15190243 14.66353484 86.15190243 11.85253906 85.63134766 C11.2634375 85.43669922 10.67433594 85.24205078 10.06738281 85.04150391 C10.06738281 84.05150391 10.06738281 83.06150391 10.06738281 82.04150391 C11.71738281 82.37150391 13.36738281 82.70150391 15.06738281 83.04150391 C15.39738281 82.38150391 15.72738281 81.72150391 16.06738281 81.04150391 C16.72738281 81.37150391 17.38738281 81.70150391 18.06738281 82.04150391 C18.06738281 81.38150391 18.06738281 80.72150391 18.06738281 80.04150391 C19.71738281 79.71150391 21.36738281 79.38150391 23.06738281 79.04150391 C23.06738281 78.38150391 23.06738281 77.72150391 23.06738281 77.04150391 C24.38738281 77.04150391 25.70738281 77.04150391 27.06738281 77.04150391 C27.06738281 76.38150391 27.06738281 75.72150391 27.06738281 75.04150391 C27.70675781 74.93837891 28.34613281 74.83525391 29.00488281 74.72900391 C29.68550781 74.50212891 30.36613281 74.27525391 31.06738281 74.04150391 C31.56238281 72.55650391 31.56238281 72.55650391 32.06738281 71.04150391 C32.72738281 71.37150391 33.38738281 71.70150391 34.06738281 72.04150391 C34.06738281 71.38150391 34.06738281 70.72150391 34.06738281 70.04150391 C33.40738281 70.04150391 32.74738281 70.04150391 32.06738281 70.04150391 C32.39738281 68.39150391 32.72738281 66.74150391 33.06738281 65.04150391 C34.05738281 65.04150391 35.04738281 65.04150391 36.06738281 65.04150391 C37.05738281 63.06150391 37.05738281 63.06150391 38.06738281 61.04150391 C38.72738281 61.04150391 39.38738281 61.04150391 40.06738281 61.04150391 C40.06738281 60.05150391 40.06738281 59.06150391 40.06738281 58.04150391 C38.58238281 57.05150391 38.58238281 57.05150391 37.06738281 56.04150391 C37.06738281 55.38150391 37.06738281 54.72150391 37.06738281 54.04150391 C36.40738281 54.04150391 35.74738281 54.04150391 35.06738281 54.04150391 C34.57238281 55.03150391 34.57238281 55.03150391 34.06738281 56.04150391 C33.07738281 56.04150391 32.08738281 56.04150391 31.06738281 56.04150391 C30.40738281 56.70150391 29.74738281 57.36150391 29.06738281 58.04150391 C28.40738281 58.70150391 27.74738281 59.36150391 27.06738281 60.04150391 C26.07738281 60.04150391 25.08738281 60.04150391 24.06738281 60.04150391 C24.06738281 60.70150391 24.06738281 61.36150391 24.06738281 62.04150391 C23.00488281 63.66650391 23.00488281 63.66650391 21.06738281 65.04150391 C17.37988281 65.22900391 17.37988281 65.22900391 14.06738281 65.04150391 C14.78410156 64.47689453 15.50082031 63.91228516 16.23925781 63.33056641 C19.00210582 61.0943386 21.6692939 58.78709847 24.31738281 56.41650391 C25.18878906 55.64048828 26.06019531 54.86447266 26.95800781 54.06494141 C29.88992897 51.25246888 30.03333264 50.45010593 30.37988281 46.29150391 C30.27316768 40.37948547 27.29358793 37.32344562 23.31738281 33.16650391 C3.63425276 17.13461546 -24.87878501 12.74314906 -48.93261719 8.04150391 C-47.13587026 4.20341865 -44.80689206 1.48312001 -41.93261719 -1.64599609 C-41.04574219 -2.61923828 -40.15886719 -3.59248047 -39.24511719 -4.59521484 C-31.12924823 -12.8893039 -9.59665553 -3.09651685 0 0 Z " fill="#EA1D27" transform="translate(417.9326171875,534.95849609375)"/>
<path d="M0 0 C0.33 0 0.66 0 1 0 C1.02684312 2.81256281 1.04676188 5.62487241 1.0625 8.4375 C1.07087891 9.23994141 1.07925781 10.04238281 1.08789062 10.86914062 C1.0965143 12.91295221 1.0522815 14.95683902 1 17 C0.67 17.33 0.34 17.66 0 18 C-0.34965882 19.88933295 -0.6546483 21.78701712 -0.9375 23.6875 C-1.61626926 27.96936023 -2.4217715 31.94169814 -4 36 C-2.68 36.33 -1.36 36.66 0 37 C0 40.79557881 -0.50178941 42.62902617 -2 46 C0.90073181 46.67801034 0.90073181 46.67801034 4 47 C4.66 46.34 5.32 45.68 6 45 C6.99 45 7.98 45 9 45 C8.62120265 47.19702465 8.09789619 48.83875922 6.9375 50.75 C3.76923229 52.79404368 0.70837308 52.182379 -3 52 C-2.71125 53.051875 -2.4225 54.10375 -2.125 55.1875 C-2 59 -2 59 -4.5625 62 C-8 64 -8 64 -11.125 64.0625 C-14.29833049 62.88974743 -15.84331841 61.57142805 -18 59 C-18.99 60.98 -19.98 62.96 -21 65 C-21.99 65 -22.98 65 -24 65 C-24 61.35111987 -23.17517091 60.60491182 -21 57.75 C-8.4064818 40.14451597 -2.69028978 21.28632788 0 0 Z " fill="#EA252F" transform="translate(430,263)"/>
<path d="M0 0 C3.84649006 1.64585392 6.85028656 4.18223006 10 6.875 C10.5681543 7.3596875 11.13630859 7.844375 11.72167969 8.34375 C24.18356735 19.11413491 35.19558668 31.01652002 44 45 C43.01 45 42.02 45 41 45 C41 44.34 41 43.68 41 43 C39.35 43 37.7 43 36 43 C36.061875 42.21625 36.12375 41.4325 36.1875 40.625 C36.125625 39.75875 36.06375 38.8925 36 38 C35.01 37.34 34.02 36.68 33 36 C32.29875 36.78375 31.5975 37.5675 30.875 38.375 C27.88701075 41.10316409 25.81041489 41.8741956 22 43 C21.67 43.66 21.34 44.32 21 45 C19.02 44.34 17.04 43.68 15 43 C14.9189794 40.89646505 14.86080093 38.79204048 14.8125 36.6875 C14.76029297 34.92986328 14.76029297 34.92986328 14.70703125 33.13671875 C15 30 15 30 16.28515625 28.09375 C19.06634935 26.3198683 21.79801699 26.82211206 25 27 C25.33 27 25.66 27 26 27 C26 26.01 26 25.02 26 24 C25.21625 23.9175 24.4325 23.835 23.625 23.75 C21 23 21 23 19.875 21 C19.58625 20.34 19.2975 19.68 19 19 C18.01 18.67 17.02 18.34 16 18 C15.34 17.01 14.68 16.02 14 15 C11.44816596 13.79549696 11.44816596 13.79549696 9 13 C9 11.68 9 10.36 9 9 C7.576875 8.9071875 7.576875 8.9071875 6.125 8.8125 C5.09375 8.544375 4.0625 8.27625 3 8 C1.6875 5.625 1.6875 5.625 1 3 C0.67 2.01 0.34 1.02 0 0 Z " fill="#EA252E" transform="translate(432,81)"/>
<path d="M0 0 C-0.33 0.99 -0.66 1.98 -1 3 C-1.99 3.33 -2.98 3.66 -4 4 C-5.20882096 6.00016466 -5.20882096 6.00016466 -6 8 C-4.865625 8.45375 -3.73125 8.9075 -2.5625 9.375 C1 11 1 11 2 13 C2.35872645 16.87424565 2.56710729 19.14933906 0.375 22.4375 C-2.63742658 24.41935959 -4.45768939 24.38503376 -8 24 C-8.66 23.67 -9.32 23.34 -10 23 C-10 22.34 -10 21.68 -10 21 C-11.98 20.67 -13.96 20.34 -16 20 C-16 19.34 -16 18.68 -16 18 C-16.66 18 -17.32 18 -18 18 C-18.33 17.67 -18.66 17.34 -19 17 C-19.12375 17.639375 -19.2475 18.27875 -19.375 18.9375 C-19.58125 19.618125 -19.7875 20.29875 -20 21 C-20.66 21.33 -21.32 21.66 -22 22 C-22.33 21.01 -22.66 20.02 -23 19 C-23.66 18.34 -24.32 17.68 -25 17 C-24.34 15.68 -23.68 14.36 -23 13 C-25.97 12.505 -25.97 12.505 -29 12 C-25.36939487 10.0746791 -21.57239327 8.61567178 -17.75 7.125 C-13.47380144 5.44301824 -9.27625657 3.73338276 -5.1875 1.625 C-2 0 -2 0 0 0 Z " fill="#EE2832" transform="translate(371,357)"/>
<path d="M0 0 C2.31 0.66 4.62 1.32 7 2 C5.63576674 6.31357566 3.98394511 10.37757251 2.125 14.5 C-3.04319323 26.35245291 -5.63743731 38.19908208 -7 51 C-7.33 51 -7.66 51 -8 51 C-8.3690205 33.14350797 -8.3690205 33.14350797 -6 25 C-5.34 25 -4.68 25 -4 25 C-4 23.68 -4 22.36 -4 21 C-4.99 21.33 -5.98 21.66 -7 22 C-7 20.68 -7 19.36 -7 18 C-8.175625 17.566875 -8.175625 17.566875 -9.375 17.125 C-12 16 -12 16 -14 14 C-14.56823055 9.697683 -14.46762853 7.6868294 -12 4.0625 C-7.96968211 1.29165645 -5.80160858 1.59308402 -1 2 C-0.67 1.34 -0.34 0.68 0 0 Z " fill="#EC2832" transform="translate(201,192)"/>
<path d="M0 0 C0.66 0.33 1.32 0.66 2 1 C2.33 1.99 2.66 2.98 3 4 C5.25787891 5.17382124 5.25787891 5.17382124 7.9375 6.0625 C12.80717489 7.80717489 12.80717489 7.80717489 15 10 C15 9.67 15 9.34 15 9 C18.375 8.375 18.375 8.375 22 8 C22.66 8.66 23.32 9.32 24 10 C22.96101563 10.47308594 21.92203125 10.94617188 20.8515625 11.43359375 C11.93234273 15.6181569 4.90624619 19.85662948 -2 27 C-2.66 27.66 -3.32 28.32 -4 29 C-4.66 29 -5.32 29 -6 29 C-5.67 28.4225 -5.34 27.845 -5 27.25 C-3.72924102 24.80116138 -3.72924102 24.80116138 -4 21 C-3.01 20.67 -2.02 20.34 -1 20 C-1.33 19.401875 -1.66 18.80375 -2 18.1875 C-3 16 -3 16 -3 13 C-3.66 13 -4.32 13 -5 13 C-4.6875 11.0625 -4.6875 11.0625 -4 9 C-3.01 8.67 -2.02 8.34 -1 8 C-1 8.66 -1 9.32 -1 10 C-0.34 9.34 0.32 8.68 1 8 C0.67 7.01 0.34 6.02 0 5 C-0.5775 5.350625 -1.155 5.70125 -1.75 6.0625 C-4 7 -4 7 -8 6 C-5.36 4.02 -2.72 2.04 0 0 Z " fill="#EC2934" transform="translate(179,547)"/>
<path d="M0 0 C0 0.33 0 0.66 0 1 C18.17643717 2.64881553 36.25510717 3.21847473 54.5 3.25 C55.52144104 3.25499512 56.54288208 3.25999023 57.59527588 3.26513672 C60.53240457 3.27693834 63.46911647 3.27393498 66.40625 3.265625 C67.28638763 3.2695929 68.16652527 3.27356079 69.07333374 3.27764893 C73.82617365 3.24177844 77.50041527 2.67975866 82 1 C85.52863834 0.5139915 89.0675098 0.40232348 92.625 0.25 C93.56601562 0.19457031 94.50703125 0.13914062 95.4765625 0.08203125 C96.3840625 0.03949219 97.2915625 -0.00304687 98.2265625 -0.046875 C99.45753662 -0.10633301 99.45753662 -0.10633301 100.71337891 -0.16699219 C103.25288598 0.01846829 104.81950171 0.72235939 107 2 C103.18862964 2.48842516 99.37573541 2.96387457 95.5625 3.4375 C93.98758789 3.63956055 93.98758789 3.63956055 92.38085938 3.84570312 C76.94224076 5.74655407 61.53832688 6.20644101 46 6.1875 C44.72807297 6.18709213 44.72807297 6.18709213 43.43045044 6.18667603 C21.7050924 6.15482627 0.48212272 4.19991898 -21 1 C-15.02074853 -2.98616765 -6.83882204 -0.86842185 0 0 Z " fill="#CC3D45" transform="translate(266,635)"/>
<path d="M0 0 C4.08769878 1.48643592 7.59799862 3.49772889 11.3125 5.75 C18.89337843 10.16924699 26.61706472 13.42331779 35 16 C35.68562012 16.21172852 36.37124023 16.42345703 37.07763672 16.64160156 C47.78427413 19.77440388 58.39672577 20.36581671 69.5 20.375 C71.39613037 20.37765869 71.39613037 20.37765869 73.33056641 20.38037109 C79.96384258 20.30072627 86.22318848 19.82612182 92.71289062 18.42431641 C95 18 95 18 99 18 C99 18.66 99 19.32 99 20 C88.28206011 23.13832488 78.11998795 24.38720379 66.9375 24.375 C65.79692139 24.37628906 64.65634277 24.37757813 63.48120117 24.37890625 C55.78517339 24.27956625 48.74910198 23.69770656 41.6875 20.5 C37.36751576 18.74271828 33.27610324 18.14085132 28.671875 17.52734375 C26 17 26 17 23 15 C21.96875 14.690625 20.9375 14.38125 19.875 14.0625 C18.451875 13.5365625 18.451875 13.5365625 17 13 C16.67 12.01 16.34 11.02 16 10 C13.03 9.505 13.03 9.505 10 9 C9.67 8.01 9.34 7.02 9 6 C7.68 6 6.36 6 5 6 C5 5.34 5 4.68 5 4 C4.360625 3.896875 3.72125 3.79375 3.0625 3.6875 C2.381875 3.460625 1.70125 3.23375 1 3 C0.67 2.01 0.34 1.02 0 0 Z " fill="#DC424C" transform="translate(243,351)"/>
<path d="M0 0 C1.32 1.65 2.64 3.3 4 5 C1.22603344 7.77396656 -2.13889311 9.17307123 -5.625 10.875 C-6.31207031 11.21402344 -6.99914062 11.55304688 -7.70703125 11.90234375 C-9.09466875 12.58705043 -10.4830162 13.27032019 -11.87207031 13.95214844 C-15.25617414 15.61857497 -18.62760877 17.31001518 -22 19 C-24.84613268 16.15386732 -24.79864424 13.95999656 -25 10 C-23.86349056 7.62366207 -22.85558971 5.85558971 -21 4 C-18.30917128 4.17635452 -15.67148554 4.61835921 -13 5 C-13 5.66 -13 6.32 -13 7 C-12.01 7 -11.02 7 -10 7 C-10.33 6.01 -10.66 5.02 -11 4 C-10.01 3.34 -9.02 2.68 -8 2 C-8 2.66 -8 3.32 -8 4 C-3.70111387 2.48134786 -3.70111387 2.48134786 0 0 Z " fill="#EB2832" transform="translate(266,136)"/>
<path d="M0 0 C1.875 0.3125 1.875 0.3125 4 1 C4.66 1.99 5.32 2.98 6 4 C6.61875 3.690625 7.2375 3.38125 7.875 3.0625 C9.25 2.375 10.625 1.6875 12 1 C12 3.31 12 5.62 12 8 C12.51949219 7.77183594 13.03898438 7.54367187 13.57421875 7.30859375 C20.78098944 4.33796554 20.78098944 4.33796554 25 6 C26.36952673 8.73905345 26.12621361 10.97087332 26 14 C25.67 14.66 25.34 15.32 25 16 C24.01 16.33 23.02 16.66 22 17 C20.79117904 19.00016466 20.79117904 19.00016466 20 21 C20.66 21 21.32 21 22 21 C21.67 21.99 21.34 22.98 21 24 C16.17014648 20.24344727 12.19131509 16.089705 8.25 11.4375 C7.77844482 10.88360596 7.30688965 10.32971191 6.82104492 9.7590332 C4.22796948 6.65409957 1.97310865 3.53186448 0 0 Z " fill="#EC2832" transform="translate(223,487)"/>
<path d="M0 0 C-0.33 0.66 -0.66 1.32 -1 2 C-0.34 2.66 0.32 3.32 1 4 C-1.31 4 -3.62 4 -6 4 C-5.01 4.99 -4.02 5.98 -3 7 C-4.34286922 11.39484471 -5.99200819 13.6842714 -10 16 C-13.8125 15.75 -13.8125 15.75 -17 15 C-17.33 13.68 -17.66 12.36 -18 11 C-18.66 11 -19.32 11 -20 11 C-20.33 10.34 -20.66 9.68 -21 9 C-23.02463255 8.34786708 -23.02463255 8.34786708 -25 8 C-22.7941576 6.86988348 -20.58554973 5.74584212 -18.375 4.625 C-17.75753906 4.30789063 -17.14007813 3.99078125 -16.50390625 3.6640625 C-5.8479679 -1.71999056 -5.8479679 -1.71999056 0 0 Z " fill="#EC2832" transform="translate(206,538)"/>
<path d="M0 0 C0.639375 0.639375 1.27875 1.27875 1.9375 1.9375 C2.62392578 2.62005859 2.62392578 2.62005859 3.32421875 3.31640625 C4.56618013 4.56415766 5.79615043 5.8238694 7.01953125 7.08984375 C12.02742187 12.22051978 17.22383052 16.75321819 23 21 C21.68 21.33 20.36 21.66 19 22 C19 21.34 19 20.68 19 20 C14.85906302 19.79029441 14.85906302 19.79029441 11 21 C8.6670134 21.04022391 6.33293334 21.04320247 4 21 C4 20.34 4 19.68 4 19 C3.01 18.67 2.02 18.34 1 18 C0.26872815 13.20610675 -0.02655813 9.74783137 1 5 C0.62277985 2.27497035 0.62277985 2.27497035 0 0 Z " fill="#EB2833" transform="translate(220,329)"/>
<path d="M0 0 C0.66 0 1.32 0 2 0 C3.3726682 1.97321053 4.70427617 3.97543152 6 6 C8.1385485 8.1385485 9.13275314 8.42655063 12 9 C11.09121094 9.70962891 11.09121094 9.70962891 10.1640625 10.43359375 C-3.53131005 21.24240316 -13.93621243 32.08860755 -23 47 C-23.33 47 -23.66 47 -24 47 C-24.33 45.02 -24.66 43.04 -25 41 C-21.25 38 -21.25 38 -19 38 C-18.505 35.03 -18.505 35.03 -18 32 C-17.01 32 -16.02 32 -15 32 C-15 31.34 -15 30.68 -15 30 C-14.34 30 -13.68 30 -13 30 C-12.67 28.35 -12.34 26.7 -12 25 C-11.01 25 -10.02 25 -9 25 C-8.34 22.03 -7.68 19.06 -7 16 C-4.69 16 -2.38 16 0 16 C0 15.34 0 14.68 0 14 C-0.66 13.67 -1.32 13.34 -2 13 C-0.35 13 1.3 13 3 13 C2.24849977 9.72226496 2.24849977 9.72226496 -1 8 C-1.25660094 4.92078868 -1.39431504 2.78863007 0 0 Z " fill="#E23541" transform="translate(232,147)"/>
<path d="M0 0 C6.65077254 -0.40680401 12.63013292 1.09756314 19.0625 2.6875 C20.16907959 2.95643066 21.27565918 3.22536133 22.41577148 3.50244141 C30.49165769 5.51180374 38.28329876 7.88018876 46 11 C46 11.33 46 11.66 46 12 C41.71 12 37.42 12 33 12 C32.505 10.515 32.505 10.515 32 9 C27.545 9.495 27.545 9.495 23 10 C23 9.01 23 8.02 23 7 C21.23186888 6.75084061 19.46025018 6.52633368 17.6875 6.3125 C16.70136719 6.18488281 15.71523438 6.05726562 14.69921875 5.92578125 C11.96255356 5.71786847 11.96255356 5.71786847 10.26953125 7.48046875 C9.64111328 8.23263672 9.64111328 8.23263672 9 9 C8.34 9 7.68 9 7 9 C7 8.34 7 7.68 7 7 C6.34 7 5.68 7 5 7 C5 6.34 5 5.68 5 5 C4.071875 5.309375 4.071875 5.309375 3.125 5.625 C2.42375 5.74875 1.7225 5.8725 1 6 C0.34 5.34 -0.32 4.68 -1 4 C-0.625 1.875 -0.625 1.875 0 0 Z " fill="#E0454E" transform="translate(340,43)"/>
<path d="M0 0 C-0.33 0.99 -0.66 1.98 -1 3 C-1.99 3.33 -2.98 3.66 -4 4 C-4.433125 5.2065625 -4.433125 5.2065625 -4.875 6.4375 C-5.24625 7.283125 -5.6175 8.12875 -6 9 C-7.2375 9.3403125 -7.2375 9.3403125 -8.5 9.6875 C-11.21645228 10.74378286 -11.21645228 10.74378286 -11.76953125 13.33984375 C-12.26652128 15.88915232 -12.68139845 18.42265612 -13 21 C-13.99 20.67 -14.98 20.34 -16 20 C-16 19.34 -16 18.68 -16 18 C-16.66 18 -17.32 18 -18 18 C-18.33 17.67 -18.66 17.34 -19 17 C-19.12375 17.639375 -19.2475 18.27875 -19.375 18.9375 C-19.58125 19.618125 -19.7875 20.29875 -20 21 C-20.66 21.33 -21.32 21.66 -22 22 C-22.33 21.01 -22.66 20.02 -23 19 C-23.66 18.34 -24.32 17.68 -25 17 C-24.34 15.68 -23.68 14.36 -23 13 C-25.97 12.505 -25.97 12.505 -29 12 C-25.36939487 10.0746791 -21.57239327 8.61567178 -17.75 7.125 C-13.47380144 5.44301824 -9.27625657 3.73338276 -5.1875 1.625 C-2 0 -2 0 0 0 Z " fill="#E21E27" transform="translate(371,357)"/>
<path d="M0 0 C0 0.66 0 1.32 0 2 C0.60585938 2.06058594 1.21171875 2.12117187 1.8359375 2.18359375 C3.59929671 2.35992967 5.36229712 2.53987598 7.125 2.72265625 C8.99759173 2.90330029 10.87289388 3.05827559 12.75 3.18359375 C13.61625 3.24675781 14.4825 3.30992187 15.375 3.375 C16.16648437 3.42398438 16.95796875 3.47296875 17.7734375 3.5234375 C20.46533492 4.099598 21.8832747 5.2807189 24 7 C26.14733927 7.70514846 26.14733927 7.70514846 28 8 C28 8.66 28 9.32 28 10 C26.93523437 9.73445312 25.87046875 9.46890625 24.7734375 9.1953125 C-2.50161131 2.49917568 -26.92940146 2.64555993 -54 10 C-54.33 9.34 -54.66 8.68 -55 8 C-49.89665983 6.094753 -45.53657294 4.57410977 -40 5 C-40 4.34 -40 3.68 -40 3 C-26.73645464 1.40216939 -13.38180865 -0.15530145 0 0 Z " fill="#D12A34" transform="translate(325,131)"/>
<path d="M0 0 C0.33 0 0.66 0 1 0 C1.02684312 2.81256281 1.04676188 5.62487241 1.0625 8.4375 C1.07087891 9.23994141 1.07925781 10.04238281 1.08789062 10.86914062 C1.0965143 12.91295221 1.0522815 14.95683902 1 17 C0.67 17.33 0.34 17.66 0 18 C-0.53962604 20.99741857 -0.96548069 24.00554327 -1.40234375 27.01953125 C-1.94784606 29.73991206 -2.74086004 31.57053909 -4 34 C-4.16724737 37.16695956 -4.16724737 37.16695956 -4 40 C-4.639375 40.268125 -5.27875 40.53625 -5.9375 40.8125 C-8.33131686 41.88667752 -8.33131686 41.88667752 -9 45 C-9.66 45 -10.32 45 -11 45 C-11.103125 46.11375 -11.20625 47.2275 -11.3125 48.375 C-11.539375 49.57125 -11.76625 50.7675 -12 52 C-12.99 52.66 -13.98 53.32 -15 54 C-16.13179527 55.83400401 -17.18834019 57.71549459 -18.1875 59.625 C-18.98220703 61.12933594 -18.98220703 61.12933594 -19.79296875 62.6640625 C-20.19128906 63.43492187 -20.58960938 64.20578125 -21 65 C-21.99 65 -22.98 65 -24 65 C-24 61.35111987 -23.17517091 60.60491182 -21 57.75 C-8.4064818 40.14451597 -2.69028978 21.28632788 0 0 Z " fill="#D6424C" transform="translate(430,263)"/>
<path d="M0 0 C0.99 0.33 1.98 0.66 3 1 C2.85950482 2.47968324 2.71245174 3.95874516 2.5625 5.4375 C2.48128906 6.26121094 2.40007812 7.08492187 2.31640625 7.93359375 C2 10 2 10 1 11 C0.835 12.155 0.67 13.31 0.5 14.5 C0 18 0 18 -1 19 C-1.20604085 20.32781878 -1.3662959 21.66295895 -1.5 23 C-1.88888889 26.88888889 -1.88888889 26.88888889 -3 28 C-3.36760731 30.32817964 -3.70241581 32.6618385 -4 35 C-4.66 35 -5.32 35 -6 35 C-5.67 46.55 -5.34 58.1 -5 70 C-4.67 70 -4.34 70 -4 70 C-3.89522488 75.78591511 -4.00749455 81.29309366 -5 87 C-5.33 87 -5.66 87 -6 87 C-8.74385361 57.09972012 -8.30151259 29.01695794 0 0 Z " fill="#DD454F" transform="translate(117,185)"/>
<path d="M0 0 C0.33 0 0.66 0 1 0 C5.18156646 23.53774834 5.49654831 46.24153842 3 70 C2.67 70 2.34 70 2 70 C2.33 58.78 2.66 47.56 3 36 C1.68 35.34 0.36 34.68 -1 34 C-0.34 34 0.32 34 1 34 C1.27197156 30.8269985 1.25312309 29.37462217 -0.5625 26.6875 C-2.65608027 22.77341515 -1.77977236 20.32419216 -1 16 C-0.90333087 13.95982189 -0.90333087 13.95982189 -1.625 11.9375 C-2.1627401 7.72520257 -1.07236756 4.06790669 0 0 Z " fill="#DE585E" transform="translate(510,201)"/>
<path d="M0 0 C2.6577267 2.43320361 4.91647847 5.06153803 7 8 C7 8.33 7 8.66 7 9 C5.02 9 3.04 9 1 9 C1.33 7.68 1.66 6.36 2 5 C1.01 5 0.02 5 -1 5 C-1 4.34 -1 3.68 -1 3 C-4.77545388 4.09068668 -7.47043472 4.9083091 -10 8 C-10.66 7.01 -11.32 6.02 -12 5 C-11.67 4.67 -11.34 4.34 -11 4 C-13.97 3.505 -13.97 3.505 -17 3 C-17 3.66 -17 4.32 -17 5 C-17.92683594 5.20496094 -18.85367188 5.40992188 -19.80859375 5.62109375 C-21.00613281 5.89050781 -22.20367187 6.15992188 -23.4375 6.4375 C-24.63246094 6.70433594 -25.82742187 6.97117187 -27.05859375 7.24609375 C-29.8704686 7.70066748 -29.8704686 7.70066748 -31 9 C-32.51928038 9.07179964 -34.04167482 9.08392007 -35.5625 9.0625 C-36.38878906 9.05347656 -37.21507812 9.04445313 -38.06640625 9.03515625 C-38.70449219 9.02355469 -39.34257812 9.01195312 -40 9 C-37.27207257 7.18138171 -35.51433127 6.43484983 -32.4296875 5.5625 C-31.08390625 5.17964844 -31.08390625 5.17964844 -29.7109375 4.7890625 C-28.77507812 4.52867187 -27.83921875 4.26828125 -26.875 4 C-25.96234375 3.73960937 -25.0496875 3.47921875 -24.109375 3.2109375 C-5.83235677 -1.94411892 -5.83235677 -1.94411892 0 0 Z " fill="#DD363F" transform="translate(243,528)"/>
<path d="M0 0 C4.75 0.75 4.75 0.75 7 3 C7.928125 3.103125 8.85625 3.20625 9.8125 3.3125 C13.90832692 4.19591365 15.34217391 5.82537439 18 9 C18.66666667 10.33333333 19.33333333 11.66666667 20 13 C20.99 13.33 21.98 13.66 23 14 C22.690625 14.86625 22.690625 14.86625 22.375 15.75 C21.90052256 18.59686462 22.45290922 19.60200929 24 22 C24.515625 22.515625 25.03125 23.03125 25.5625 23.5625 C27 25 27 25 28 28 C27.01 28 26.02 28 25 28 C23.1953125 25.83203125 23.1953125 25.83203125 21.125 22.8125 C15.86835159 15.40723859 9.52335989 9.27941152 3 3 C1.99803186 2.00197202 0.99751325 1.00248058 0 0 Z M14 3 C14.66 3.66 15.32 4.32 16 5 C15.34 5 14.68 5 14 5 C14 4.34 14 3.68 14 3 Z " fill="#E42A32" transform="translate(385,159)"/>
<path d="M0 0 C0 0.33 0 0.66 0 1 C-1.07378906 0.91621094 -2.14757812 0.83242188 -3.25390625 0.74609375 C-4.69007622 0.6428397 -6.12627581 0.53999706 -7.5625 0.4375 C-8.61920898 0.35338867 -8.61920898 0.35338867 -9.69726562 0.26757812 C-14.29001254 -0.04989286 -18.43502644 0.22286074 -23 1 C-23.66 1 -24.32 1 -25 1 C-24.67 -0.32 -24.34 -1.64 -24 -3 C-26.31 -3.33 -28.62 -3.66 -31 -4 C-30.34 -2.68 -29.68 -1.36 -29 0 C-30.32 0.33 -31.64 0.66 -33 1 C-34.32 -1.64 -35.64 -4.28 -37 -7 C-27.96909821 -11.5154509 -9.07504255 -2.76174355 0 0 Z " fill="#DD2129" transform="translate(418,535)"/>
<path d="M0 0 C0.64453125 1.828125 0.64453125 1.828125 1 4 C-1.3125 6.75 -1.3125 6.75 -4 9 C-4.66 9 -5.32 9 -6 9 C-6.185625 9.70125 -6.37125 10.4025 -6.5625 11.125 C-8.28153694 14.56307388 -10.35759634 16.22947171 -13.34375 18.5703125 C-15.2526135 20.08924941 -15.2526135 20.08924941 -17 23 C-20.625 24.1875 -20.625 24.1875 -24 25 C-24 26.32 -24 27.64 -24 29 C-27.32534757 30.10844919 -29.62182575 29.84454356 -33 29 C-29.48371405 26.15103839 -25.89546726 23.43105793 -22.25 20.75 C-13.94987168 14.52744981 -6.61728826 8.00032278 0 0 Z " fill="#D65059" transform="translate(404,328)"/>
<path d="M0 0 C3.84658271 1.64589356 6.84999827 4.18246154 10 6.875 C10.56307861 7.35461182 11.12615723 7.83422363 11.70629883 8.32836914 C15.83680699 11.89439564 19.80955542 15.59890726 23.6875 19.4375 C24.19216797 19.9329834 24.69683594 20.4284668 25.21679688 20.93896484 C27.70083995 23.44436318 29.67006364 25.71015742 31 29 C30.34 29.33 29.68 29.66 29 30 C29 29.34 29 28.68 29 28 C28.01 27.67 27.02 27.34 26 27 C26 26.01 26 25.02 26 24 C25.21625 23.9175 24.4325 23.835 23.625 23.75 C21 23 21 23 19.875 21 C19.58625 20.34 19.2975 19.68 19 19 C18.01 18.67 17.02 18.34 16 18 C15.34 17.01 14.68 16.02 14 15 C11.44816596 13.79549696 11.44816596 13.79549696 9 13 C9 11.68 9 10.36 9 9 C7.576875 8.9071875 7.576875 8.9071875 6.125 8.8125 C5.09375 8.544375 4.0625 8.27625 3 8 C1.6875 5.625 1.6875 5.625 1 3 C0.67 2.01 0.34 1.02 0 0 Z " fill="#D8434E" transform="translate(432,81)"/>
<path d="M0 0 C0.66 0 1.32 0 2 0 C3.06366903 3.19100709 3.20855325 5.77228693 3.375 9.125 C3.72132161 14.08344591 4.49337514 18.23696178 6.234375 22.87109375 C8.02058319 27.83784611 9 32.73103074 9 38 C9.66 38 10.32 38 11 38 C11 39.65 11 41.3 11 43 C11.66 43 12.32 43 13 43 C13.8723412 45.99480917 14.10829766 48.63575911 14.0625 51.75 C14.05347656 52.54921875 14.04445313 53.3484375 14.03515625 54.171875 C14.02355469 54.77515625 14.01195313 55.3784375 14 56 C4.44546058 41.66819086 0.39558089 17.04594003 0 0 Z " fill="#D7616A" transform="translate(112,272)"/>
<path d="M0 0 C-0.66 0 -1.32 0 -2 0 C-2 0.66 -2 1.32 -2 2 C-9.59037993 5.37350219 -16.35866743 5.18482575 -24.48828125 5.0390625 C-28.15209317 4.97968637 -31.72359084 5.15753577 -35.375 5.5 C-47.20397407 6.49982995 -59.13969668 6.08015385 -71 6 C-71 5.67 -71 5.34 -71 5 C-69.92967529 4.96036133 -68.85935059 4.92072266 -67.7565918 4.87988281 C-39.72332217 3.81061905 -39.72332217 3.81061905 -11.92456055 0.23339844 C-10.42276245 -0.02715332 -10.42276245 -0.02715332 -8.890625 -0.29296875 C-7.60720215 -0.53309692 -7.60720215 -0.53309692 -6.29785156 -0.77807617 C-3.9171971 -1.00799701 -2.26265097 -0.72672176 0 0 Z " fill="#E05D66" transform="translate(385,617)"/>
<path d="M0 0 C-6.09566082 6.92437603 -13.00622966 11.47917857 -21 16 C-22.22396484 16.70576172 -22.22396484 16.70576172 -23.47265625 17.42578125 C-28.40716388 20.10978447 -28.40716388 20.10978447 -31.21484375 19.58984375 C-31.80394531 19.39519531 -32.39304687 19.20054687 -33 19 C-33 18.01 -33 17.02 -33 16 C-31.35 16.33 -29.7 16.66 -28 17 C-27.67 16.34 -27.34 15.68 -27 15 C-26.34 15.33 -25.68 15.66 -25 16 C-25 15.34 -25 14.68 -25 14 C-23.35 13.67 -21.7 13.34 -20 13 C-20 12.34 -20 11.68 -20 11 C-18.68 11 -17.36 11 -16 11 C-16 10.34 -16 9.68 -16 9 C-15.360625 8.896875 -14.72125 8.79375 -14.0625 8.6875 C-13.381875 8.460625 -12.70125 8.23375 -12 8 C-11.67 7.01 -11.34 6.02 -11 5 C-10.34 5.33 -9.68 5.66 -9 6 C-8.67 5.01 -8.34 4.02 -8 3 C-7.34 3 -6.68 3 -6 3 C-6 2.01 -6 1.02 -6 0 C-3.50907189 -1.24546405 -2.58919267 -0.7767578 0 0 Z " fill="#D43B44" transform="translate(461,601)"/>
<path d="M0 0 C1.50559539 1.96382007 2.89131683 3.78263366 4 6 C4.99 5.67 5.98 5.34 7 5 C6.34 3.68 5.68 2.36 5 1 C7.64 1.33 10.28 1.66 13 2 C13 5 13 5 11.9375 6.6875 C9.02679298 8.65926927 6.41970529 8.19356822 3 8 C3 8.99 3 9.98 3 11 C2.34 11 1.68 11 1 11 C1 10.01 1 9.02 1 8 C-1.05270463 9.84188612 -1.05270463 9.84188612 -2 12 C-3.65 12 -5.3 12 -7 12 C-6.67 10.68 -6.34 9.36 -6 8 C-5.01 8 -4.02 8 -3 8 C-2.690625 7.05125 -2.38125 6.1025 -2.0625 5.125 C-1 2 -1 2 0 0 Z " fill="#E81D27" transform="translate(381,529)"/>
<path d="M0 0 C1.7074998 1.28062485 3.37373596 2.61767557 5 4 C5 4.66 5 5.32 5 6 C0.54191577 6.95949454 -3.91651218 7.91738274 -8.375 8.875 C-9.62667969 9.14441406 -10.87835938 9.41382813 -12.16796875 9.69140625 C-19.1021321 11.17989158 -26.03996497 12.63723855 -33 14 C-31.3359375 10.15625 -31.3359375 10.15625 -28.3125 8.75 C-24.76576828 7.9469664 -21.62655971 8 -18 8 C-17.07960937 7.68289063 -16.15921875 7.36578125 -15.2109375 7.0390625 C-11.76688945 5.9245652 -8.7313028 5.59579405 -5.125 5.375 C-3.97257812 5.30023437 -2.82015625 5.22546875 -1.6328125 5.1484375 C-0.76398438 5.09945312 0.10484375 5.05046875 1 5 C0.505 2.525 0.505 2.525 0 0 Z " fill="#CB3C43" transform="translate(250,537)"/>
<path d="M0 0 C4.84476699 2.02467874 6.73926632 5.41054064 9 10 C9.8125 13.5 9.8125 13.5 10 16 C10.33 16 10.66 16 11 16 C11 18.64 11 21.28 11 24 C11.99 24.33 12.98 24.66 14 25 C13.67 26.32 13.34 27.64 13 29 C10.61091152 26.0415027 9.03044476 23.13274593 7.51953125 19.6484375 C7.07802734 18.63265625 6.63652344 17.616875 6.18164062 16.5703125 C5.72982422 15.51585937 5.27800781 14.46140625 4.8125 13.375 C4.34908203 12.3128125 3.88566406 11.250625 3.40820312 10.15625 C0 2.26568253 0 2.26568253 0 0 Z " fill="#D9323B" transform="translate(130,339)"/>
<path d="M0 0 C9.65740692 2.7447367 19.77565885 10.06199531 26 18 C27.4375 20.9375 27.4375 20.9375 28 23 C23.125 20.375 23.125 20.375 22 17 C21.01 17 20.02 17 19 17 C19 15.68 19 14.36 19 13 C18.0925 12.731875 17.185 12.46375 16.25 12.1875 C13.21395238 11.07817491 11.47612009 9.99687104 9 8 C5.57977352 5.77272393 5.57977352 5.77272393 1.75 4.5 C1.1725 4.335 0.595 4.17 0 4 C-0.33 3.01 -0.66 2.02 -1 1 C-0.67 0.67 -0.34 0.34 0 0 Z " fill="#D8686F" transform="translate(436,543)"/>
<path d="M0 0 C0.66 0 1.32 0 2 0 C1.25 4.75 1.25 4.75 -1 7 C1.91517292 5.92598892 3.77810176 5.22189824 6 3 C6.33 4.32 6.66 5.64 7 7 C4.82673012 9.27614656 2.68065576 11.33466275 0 13 C-3.73501967 12.43622345 -5.34353596 11.65646404 -8 9 C-8 8.01 -8 7.02 -8 6 C-7.236875 5.7525 -6.47375 5.505 -5.6875 5.25 C-2.73819971 3.87823242 -1.82568981 2.6081283 0 0 Z " fill="#EC2931" transform="translate(390,346)"/>
<path d="M0 0 C-0.33 0.66 -0.66 1.32 -1 2 C-0.34 2.66 0.32 3.32 1 4 C-0.134375 3.9175 -1.26875 3.835 -2.4375 3.75 C-7.56486617 3.71331044 -11.52078524 5.6774442 -16 8 C-15.34 9.32 -14.68 10.64 -14 12 C-14.99 12 -15.98 12 -17 12 C-17 11.01 -17 10.02 -17 9 C-19.64 9 -22.28 9 -25 9 C-22.32786383 5.71877397 -18.81344797 4.43007407 -15 2.875 C-14.3709375 2.61074219 -13.741875 2.34648438 -13.09375 2.07421875 C-5.13271973 -1.24849939 -5.13271973 -1.24849939 0 0 Z " fill="#DC2C37" transform="translate(206,538)"/>
<path d="M0 0 C0.144375 0.598125 0.28875 1.19625 0.4375 1.8125 C0.8872439 3.56150404 1.42892341 5.28677023 2 7 C4.37305578 7.41780879 4.37305578 7.41780879 7 7 C8.8624438 4.59141286 8.8624438 4.59141286 10 2 C12 5 12 5 11.9375 6.9375 C10.54181735 10.00800184 8.8743765 11.2753741 6 13 C2.43797548 13 0.72766307 12.61396571 -2 10.3125 C-3 8 -3 8 -2.25 4.875 C-1.53638886 3.23369438 -0.80039053 1.60078106 0 0 Z " fill="#ED2933" transform="translate(416,314)"/>
<path d="M0 0 C0.33 0 0.66 0 1 0 C1 14.19 1 28.38 1 43 C1.33 43 1.66 43 2 43 C2.10477512 48.78591511 1.99250545 54.29309366 1 60 C0.67 60 0.34 60 0 60 C-1.83022183 40.05573441 -3.24449677 19.88294177 0 0 Z " fill="#DB676C" transform="translate(111,212)"/>
<path d="M0 0 C-0.18175781 0.63164062 -0.36351562 1.26328125 -0.55078125 1.9140625 C-3.51622734 12.46800911 -6.05696156 23.06075414 -7 34 C-7.33 34 -7.66 34 -8 34 C-8.3690205 16.14350797 -8.3690205 16.14350797 -6 8 C-5.34 8 -4.68 8 -4 8 C-4 6.68 -4 5.36 -4 4 C-4.99 4.33 -5.98 4.66 -7 5 C-7 3.68 -7 2.36 -7 1 C-4.50935112 0.31292445 -2.62113708 0 0 0 Z " fill="#D6424A" transform="translate(201,209)"/>
<path d="M0 0 C1 3 1 3 -0.25 6.5 C-2 10 -2 10 -3.515625 11.4453125 C-5.32046194 13.33564172 -5.78350642 14.87580215 -6.5 17.375 C-7.61643732 20.92677469 -8.67773479 24.02750053 -11 27 C-13.1875 27.8125 -13.1875 27.8125 -15 28 C-13.55353563 23.18586985 -11.56824263 18.95964265 -9.1875 14.5625 C-8.83365234 13.90306396 -8.47980469 13.24362793 -8.11523438 12.56420898 C-5.69952187 8.12495224 -3.11459274 3.99057195 0 0 Z " fill="#DA5058" transform="translate(141,135)"/>
<path d="M0 0 C0 0.33 0 0.66 0 1 C-27.16403693 4.58165209 -27.16403693 4.58165209 -38 4 C-38 3.67 -38 3.34 -38 3 C-36.96875 2.87625 -35.9375 2.7525 -34.875 2.625 C-31.12876651 2.1414274 -31.12876651 2.1414274 -28.2109375 1.00390625 C-19.29229927 -1.78452444 -9.16848064 -1.40223822 0 0 Z " fill="#D6303A" transform="translate(373,636)"/>
<path d="M0 0 C-0.886875 0.4125 -1.77375 0.825 -2.6875 1.25 C-6.01963378 2.84745811 -6.01963378 2.84745811 -8.5 5.1875 C-11.63448475 7.46000144 -13.19440895 7.15222364 -17 7 C-19.34210921 7.63514826 -21.67684969 8.2986716 -24 9 C-24.99 9 -25.98 9 -27 9 C-27.33 9.66 -27.66 10.32 -28 11 C-31.22791555 13.1519437 -32.28400809 13.20086443 -36 13 C-29.24128116 7.44173487 -8.6295556 -2.87651853 0 0 Z " fill="#DE666D" transform="translate(258,49)"/>
<path d="M0 0 C0.66 1.32 1.32 2.64 2 4 C1.01 4.99 0.02 5.98 -1 7 C-1 6.34 -1 5.68 -1 5 C-1.66 5 -2.32 5 -3 5 C-2.79375 5.61875 -2.5875 6.2375 -2.375 6.875 C-2.25125 7.57625 -2.1275 8.2775 -2 9 C-4.23637531 11.23637531 -6.09619927 11.83847971 -9 13 C-9.66 13.66 -10.32 14.32 -11 15 C-12.32 14.01 -13.64 13.02 -15 12 C-10.19200621 7.66656144 -5.33522342 3.6679661 0 0 Z " fill="#DD2C34" transform="translate(191,81)"/>
<path d="M0 0 C0.66 0.66 1.32 1.32 2 2 C1.67 2.66 1.34 3.32 1 4 C0.34 4 -0.32 4 -1 4 C-1 4.66 -1 5.32 -1 6 C-1.99 6 -2.98 6 -4 6 C-4.0825 6.94875 -4.165 7.8975 -4.25 8.875 C-5 12 -5 12 -7.0625 13.375 C-7.701875 13.58125 -8.34125 13.7875 -9 14 C-9.33 13.34 -9.66 12.68 -10 12 C-9.34 12 -8.68 12 -8 12 C-8.185625 10.741875 -8.37125 9.48375 -8.5625 8.1875 C-9.00732761 5.17255732 -8.99843846 3.99531539 -8 1 C-5.06884852 -1.02148378 -3.31031938 -1.32412775 0 0 Z " fill="#EA2830" transform="translate(218,173)"/>
<path d="M0 0 C0.66 0 1.32 0 2 0 C1.36520743 3.88179638 0.19594716 7.15563836 -1.3984375 10.74609375 C-2.11773437 12.37321289 -2.11773437 12.37321289 -2.8515625 14.03320312 C-3.35429687 15.15662109 -3.85703125 16.28003906 -4.375 17.4375 C-4.87 18.55705078 -5.365 19.67660156 -5.875 20.83007812 C-8.14610541 25.94613777 -10.47016692 31.00564077 -13 36 C-13.33 36 -13.66 36 -14 36 C-14.29296875 29.9453125 -14.29296875 29.9453125 -14 28 C-13.01 27.34 -12.02 26.68 -11 26 C-10.27034634 23.43717258 -10.27034634 23.43717258 -10 21 C-9.34 21 -8.68 21 -8 21 C-7.73445313 20.17242187 -7.46890625 19.34484375 -7.1953125 18.4921875 C-5.87893884 14.6463115 -4.40054038 10.89140591 -2.875 7.125 C-2.59785156 6.43664062 -2.32070313 5.74828125 -2.03515625 5.0390625 C-1.35835767 3.35873499 -0.67940197 1.67927658 0 0 Z " fill="#D14C54" transform="translate(493,336)"/>
<path d="M0 0 C-2.47845159 2.47845159 -3.90000091 2.2365816 -7.28218079 2.25224304 C-7.99988144 2.24505753 -8.71758209 2.23787201 -9.45703125 2.23046875 C-10.19700851 2.23001053 -10.93698578 2.22955231 -11.6993866 2.2290802 C-13.26713663 2.22605666 -14.83488364 2.21816731 -16.40258789 2.20581055 C-18.7925899 2.18765128 -21.18220209 2.18530025 -23.57226562 2.18554688 C-25.09635749 2.18062764 -26.62044674 2.17479756 -28.14453125 2.16796875 C-29.21197319 2.16629951 -29.21197319 2.16629951 -30.30097961 2.16459656 C-33.98836464 2.12968644 -37.41344002 1.87386715 -41 1 C-41 0.67 -41 0.34 -41 0 C-27.23120986 -0.86287288 -13.76052548 -1.0328339 0 0 Z " fill="#C42E35" transform="translate(329,623)"/>
<path d="M0 0 C4.78622998 6.03481171 4.78775792 12.55120576 4.30029297 20.0078125 C3.52346157 25.16142566 0.72424038 29.64608011 -2 34 C-2.33 34 -2.66 34 -3 34 C-3 32.35 -3 30.7 -3 29 C-2.34 29 -1.68 29 -1 29 C-0.855625 27.865625 -0.71125 26.73125 -0.5625 25.5625 C0 22 0 22 1 21 C1.2312105 13.94807986 0.66497023 7.01781079 0 0 Z " fill="#D55660" transform="translate(464,566)"/>
<path d="M0 0 C0 0.66 0 1.32 0 2 C1.32 2 2.64 2 4 2 C4.99 2 5.98 2 7 2 C6.42655063 4.86724686 6.1385485 5.8614515 4 8 C-0.21354337 8.37453719 -3.18610442 7.79477439 -7 6 C-6.75 3.625 -6.75 3.625 -6 1 C-2.69333333 -1.34666667 -2.69333333 -1.34666667 0 0 Z " fill="#ED2831" transform="translate(412,326)"/>
<path d="M0 0 C0.66 0 1.32 0 2 0 C2.33 1.32 2.66 2.64 3 4 C4.32 4 5.64 4 7 4 C7.33 3.01 7.66 2.02 8 1 C8.99 0.67 9.98 0.34 11 0 C11.33 0.99 11.66 1.98 12 3 C8.08823529 8.58823529 8.08823529 8.58823529 4.6875 9.875 C3.8521875 9.936875 3.8521875 9.936875 3 10 C3 9.34 3 8.68 3 8 C2.01 7.67 1.02 7.34 0 7 C0 6.34 0 5.68 0 5 C-0.66 5 -1.32 5 -2 5 C-1.125 1.125 -1.125 1.125 0 0 Z " fill="#ED2731" transform="translate(407,158)"/>
<path d="M0 0 C0.33 0 0.66 0 1 0 C1.19477739 1.62414378 1.38059458 3.24936423 1.5625 4.875 C1.66691406 5.77992188 1.77132813 6.68484375 1.87890625 7.6171875 C2 10 2 10 1 12 C0.34 12 -0.32 12 -1 12 C-1.309375 12.61875 -1.61875 13.2375 -1.9375 13.875 C-2.625 15.25 -3.3125 16.625 -4 18 C-4.99 18 -5.98 18 -7 18 C-7 18.66 -7 19.32 -7 20 C-8.0625 21.625 -8.0625 21.625 -10 23 C-13.6875 23.1875 -13.6875 23.1875 -17 23 C-14.47726456 20.97999999 -11.954512 18.96494628 -9.39453125 16.9921875 C-3.77049421 12.3806473 -0.91262176 9.21070941 -0.0859375 1.87109375 C-0.04339844 0.94490234 -0.04339844 0.94490234 0 0 Z " fill="#D44953" transform="translate(449,577)"/>
<path d="M0 0 C0.66 0.33 1.32 0.66 2 1 C-5.26 8.26 -12.52 15.52 -20 23 C-20.99 22.34 -21.98 21.68 -23 21 C-22.67 20.34 -22.34 19.68 -22 19 C-20.68 19 -19.36 19 -18 19 C-18 18.34 -18 17.68 -18 17 C-17.34 17 -16.68 17 -16 17 C-15.7525 16.195625 -15.505 15.39125 -15.25 14.5625 C-14.8375 13.716875 -14.425 12.87125 -14 12 C-11.9375 11.375 -11.9375 11.375 -10 11 C-9.67 10.01 -9.34 9.02 -9 8 C-8.34 8 -7.68 8 -7 8 C-7 7.01 -7 6.02 -7 5 C-6.34 5 -5.68 5 -5 5 C-4.67 4.01 -4.34 3.02 -4 2 C-2.0625 0.75 -2.0625 0.75 0 0 Z " fill="#CB2934" transform="translate(362,528)"/>
<path d="M0 0 C7.35543774 0.87345823 14.6746234 1.96794795 22 3.0625 C23.25167969 3.24876953 24.50335938 3.43503906 25.79296875 3.62695312 C28.86210328 4.08380903 31.9311086 4.54151425 35 5 C35 5.33 35 5.66 35 6 C32.02077407 6.02683987 29.04178705 6.04676037 26.0625 6.0625 C24.78729492 6.07506836 24.78729492 6.07506836 23.48632812 6.08789062 C22.67744141 6.09111328 21.86855469 6.09433594 21.03515625 6.09765625 C20.2862915 6.10289307 19.53742676 6.10812988 18.76586914 6.11352539 C17 6 17 6 16 5 C12.44256151 4.71340329 8.88500847 4.5509193 5.3203125 4.37890625 C2 4 2 4 -1 2 C-0.67 1.34 -0.34 0.68 0 0 Z " fill="#D64E56" transform="translate(235,615)"/>
<path d="M0 0 C-2.96586932 1.97724622 -5.11647499 2.73952217 -8.515625 3.69140625 C-9.60230469 3.99626953 -10.68898438 4.30113281 -11.80859375 4.61523438 C-12.94425781 4.92783203 -14.07992188 5.24042969 -15.25 5.5625 C-16.93029297 6.03719727 -16.93029297 6.03719727 -18.64453125 6.52148438 C-24.08742311 8.0348268 -29.37722445 9.40684593 -35 10 C-34.67 9.01 -34.34 8.02 -34 7 C-28.72 6.34 -23.44 5.68 -18 5 C-18 4.34 -18 3.68 -18 3 C-15.93918639 2.49309416 -13.87626474 1.99475381 -11.8125 1.5 C-10.66394531 1.2215625 -9.51539063 0.943125 -8.33203125 0.65625 C-5.43181171 0.08504615 -2.93903615 -0.13283779 0 0 Z " fill="#CD424B" transform="translate(422,624)"/>
<path d="M0 0 C0.94875 0.825 1.8975 1.65 2.875 2.5 C7.48450321 6.45641138 12.24034752 10.22675437 17 14 C15.68 14.33 14.36 14.66 13 15 C13 14.34 13 13.68 13 13 C10.36 13 7.72 13 5 13 C5 12.34 5 11.68 5 11 C4.34 10.67 3.68 10.34 3 10 C2.63128912 8.34080104 2.30404678 6.67225729 2 5 C1.36562656 3.3207762 0.70710678 1.64991582 0 0 Z " fill="#E42831" transform="translate(226,336)"/>
<path d="M0 0 C0 0.66 0 1.32 0 2 C-0.66 2 -1.32 2 -2 2 C-2.33 3.65 -2.66 5.3 -3 7 C-1.02 7 0.96 7 3 7 C3 7.66 3 8.32 3 9 C1.02 9.33 -0.96 9.66 -3 10 C-3 10.66 -3 11.32 -3 12 C-6.875 11.125 -6.875 11.125 -8 10 C-8.40478183 6.35696353 -8.45825163 4.62191293 -6.25 1.625 C-4 0 -4 0 0 0 Z " fill="#ED2833" transform="translate(229,154)"/>
<path d="M0 0 C4.75 0.75 4.75 0.75 7 3 C8.98821313 3.39764263 10.98944339 3.73775349 13 4 C13.33 4.99 13.66 5.98 14 7 C13.34 7 12.68 7 12 7 C12.495 7.45375 12.99 7.9075 13.5 8.375 C15 10 15 10 15 12 C15.99 12.33 16.98 12.66 18 13 C17.34 13 16.68 13 16 13 C15.67 13.66 15.34 14.32 15 15 C10 10 5 5 0 0 Z M14 3 C14.66 3.66 15.32 4.32 16 5 C15.34 5 14.68 5 14 5 C14 4.34 14 3.68 14 3 Z " fill="#DD4B52" transform="translate(385,159)"/>
<path d="M0 0 C0 0.66 0 1.32 0 2 C-1.65 2 -3.3 2 -5 2 C-5 2.66 -5 3.32 -5 4 C-5.92683594 4.20496094 -6.85367188 4.40992188 -7.80859375 4.62109375 C-9.00613281 4.89050781 -10.20367187 5.15992188 -11.4375 5.4375 C-12.63246094 5.70433594 -13.82742187 5.97117187 -15.05859375 6.24609375 C-17.8704686 6.70066748 -17.8704686 6.70066748 -19 8 C-20.51928038 8.07179964 -22.04167482 8.08392007 -23.5625 8.0625 C-24.38878906 8.05347656 -25.21507812 8.04445313 -26.06640625 8.03515625 C-26.70449219 8.02355469 -27.34257812 8.01195312 -28 8 C-25.2367841 6.15785607 -23.38570236 5.39180037 -20.25390625 4.4921875 C-19.33416016 4.22792969 -18.41441406 3.96367188 -17.46679688 3.69140625 C-16.50837891 3.42199219 -15.54996094 3.15257812 -14.5625 2.875 C-13.60794922 2.59785156 -12.65339844 2.32070313 -11.66992188 2.03515625 C-10.74888672 1.77347656 -9.82785156 1.51179687 -8.87890625 1.2421875 C-8.0391626 1.0035498 -7.19941895 0.76491211 -6.33422852 0.51904297 C-4 0 -4 0 0 0 Z " fill="#D44F59" transform="translate(231,529)"/>
<path d="M0 0 C0.99 0.33 1.98 0.66 3 1 C1.35126723 4.71633277 -0.96800444 7.72188427 -3.4375 10.9375 C-5.6839022 13.86485443 -7.82758061 16.7118524 -9.72265625 19.87890625 C-10.14417969 20.57886719 -10.56570312 21.27882812 -11 22 C-11.33 22 -11.66 22 -12 22 C-12.33 20.02 -12.66 18.04 -13 16 C-9.25 13 -9.25 13 -7 13 C-6.67 11.02 -6.34 9.04 -6 7 C-5.01 7 -4.02 7 -3 7 C-3 6.34 -3 5.68 -3 5 C-2.34 5 -1.68 5 -1 5 C-0.67 3.35 -0.34 1.7 0 0 Z " fill="#D3444D" transform="translate(220,172)"/>
<path d="M0 0 C3.4263192 1.54943106 6.23053905 3.56009704 9.1875 5.875 C10.50814453 6.89207031 10.50814453 6.89207031 11.85546875 7.9296875 C14.04293699 10.04145101 14.66093897 11.03487804 15 14 C14.01 14.495 14.01 14.495 13 15 C10.875 14.0625 10.875 14.0625 9 13 C9 11.68 9 10.36 9 9 C7.576875 8.9071875 7.576875 8.9071875 6.125 8.8125 C5.09375 8.544375 4.0625 8.27625 3 8 C1.6875 5.625 1.6875 5.625 1 3 C0.67 2.01 0.34 1.02 0 0 Z " fill="#D8414C" transform="translate(432,81)"/>
<path d="M0 0 C-6.66666667 3.33333333 -13.33333333 6.66666667 -20 10 C-20 8.68 -20 7.36 -20 6 C-18.35 5.67 -16.7 5.34 -15 5 C-15 4.01 -15 3.02 -15 2 C-13.02 1.34 -11.04 0.68 -9 0 C-9 -0.33 -9 -0.66 -9 -1 C-5.12506344 -2.07637127 -3.47547073 -1.94566951 0 0 Z " fill="#D0333C" transform="translate(203,557)"/>
<path d="M0 0 C5.77367906 0.70698111 11.17425311 1.82834885 16.5625 4.0625 C19.35370604 5.13604079 22.04506751 5.58768384 25 6 C25 6.66 25 7.32 25 8 C25.66 8.33 26.32 8.66 27 9 C20.98392064 8.44750292 15.78763561 7.1338325 10.125 5.0625 C9.36703125 4.79759766 8.6090625 4.53269531 7.828125 4.25976562 C2.26524575 2.26524575 2.26524575 2.26524575 0 0 Z " fill="#CE4048" transform="translate(195,621)"/>
<path d="M0 0 C6.01077136 1.63040815 12.01663928 3.27147357 18 5 C18 5.33 18 5.66 18 6 C15.5821288 6.10826289 13.16912444 6.18739789 10.75 6.25 C9.72712891 6.30027344 9.72712891 6.30027344 8.68359375 6.3515625 C5.07818187 6.4215705 3.35931188 6.29151719 0.515625 3.984375 C0.01546875 3.32953125 -0.4846875 2.6746875 -1 2 C-0.67 1.34 -0.34 0.68 0 0 Z " fill="#D83743" transform="translate(207,607)"/>
<path d="M0 0 C0 0.66 0 1.32 0 2 C-12.58438623 5.72214241 -25.00155859 5.31238552 -38 5 C-38 4.67 -38 4.34 -38 4 C-36.329375 3.94392578 -36.329375 3.94392578 -34.625 3.88671875 C-25.28706527 3.50681821 -16.40456903 2.55207568 -7.2578125 0.62109375 C-4 0 -4 0 0 0 Z " fill="#C93B46" transform="translate(342,369)"/>
<path d="M0 0 C-0.33 0.99 -0.66 1.98 -1 3 C-1.99 3.33 -2.98 3.66 -4 4 C-4.433125 5.2375 -4.433125 5.2375 -4.875 6.5 C-5.24625 7.325 -5.6175 8.15 -6 9 C-8.625 9.8125 -8.625 9.8125 -11 10 C-11 9.34 -11 8.68 -11 8 C-13.64 8.33 -16.28 8.66 -19 9 C-16.26183343 6.26183343 -12.97217359 4.97155085 -9.5 3.375 C-8.81035156 3.05015625 -8.12070312 2.7253125 -7.41015625 2.390625 C-2.25725446 0 -2.25725446 0 0 0 Z " fill="#D7535B" transform="translate(371,357)"/>
<path d="M0 0 C0.80244141 0.07476562 1.60488281 0.14953125 2.43164062 0.2265625 C6.79506962 0.70454808 9.61081371 1.16973492 12.9375 4.25 C15.08483927 4.95514846 15.08483927 4.95514846 16.9375 5.25 C16.9375 5.91 16.9375 6.57 16.9375 7.25 C15.87273437 6.98445312 14.80796875 6.71890625 13.7109375 6.4453125 C4.48173858 4.1852749 -4.61823645 2.38750242 -14.0625 1.25 C-14.0625 0.92 -14.0625 0.59 -14.0625 0.25 C-9.26020641 -1.10822445 -4.87751616 -0.55113177 0 0 Z " fill="#D0454E" transform="translate(336.0625,133.75)"/>
<path d="M0 0 C1 3 1 3 0.0625 5.1875 C-0.288125 5.785625 -0.63875 6.38375 -1 7 C-1.66 7 -2.32 7 -3 7 C-3.33 7.66 -3.66 8.32 -4 9 C-4.66 9.28875 -5.32 9.5775 -6 9.875 C-8.18643677 10.79756686 -8.18643677 10.79756686 -8.5625 12.9375 C-8.706875 13.618125 -8.85125 14.29875 -9 15 C-10.5625 16.75 -10.5625 16.75 -12 18 C-12.99 17.67 -13.98 17.34 -15 17 C-14.41992188 16.35933594 -13.83984375 15.71867187 -13.2421875 15.05859375 C-8.75905025 10.09459194 -4.32554972 5.10193044 0 0 Z " fill="#D6444B" transform="translate(169,100)"/>
<path d="M0 0 C1.32 0.33 2.64 0.66 4 1 C4 1.66 4 2.32 4 3 C4.66 3 5.32 3 6 3 C6 4.32 6 5.64 6 7 C8.475 7.99 8.475 7.99 11 9 C11.33 8.34 11.66 7.68 12 7 C12.33 9.64 12.66 12.28 13 15 C12.01 15 11.02 15 10 15 C8.13344263 12.72191818 6.46451918 10.48750391 4.8125 8.0625 C4.34908203 7.40314453 3.88566406 6.74378906 3.40820312 6.06445312 C0 1.17049429 0 1.17049429 0 0 Z " fill="#D1474D" transform="translate(187,441)"/>
<path d="M0 0 C0 0.66 0 1.32 0 2 C-0.99 2.495 -0.99 2.495 -2 3 C-1.34 3.66 -0.68 4.32 0 5 C0.3125 8 0.3125 8 0 11 C-0.99 11.66 -1.98 12.32 -3 13 C-3.33 12.01 -3.66 11.02 -4 10 C-4.66 9.34 -5.32 8.68 -6 8 C-5.34 6.68 -4.68 5.36 -4 4 C-6.97 3.505 -6.97 3.505 -10 3 C-6.59538535 1.23899242 -3.90650339 0 0 0 Z " fill="#ED2731" transform="translate(352,366)"/>
<path d="M0 0 C0.33 0.66 0.66 1.32 1 2 C0.06553465 4.03144641 -0.93224776 6.03533587 -2 8 C-2.99 8 -3.98 8 -5 8 C-5 9.98 -5 11.96 -5 14 C-4.01 14.33 -3.02 14.66 -2 15 C-8.75 15.125 -8.75 15.125 -11 14 C-9.42219077 10.28954753 -7.09296752 7.70093616 -4.375 4.75 C-3.55773437 3.85796875 -2.74046875 2.9659375 -1.8984375 2.046875 C-1.27195312 1.37140625 -0.64546875 0.6959375 0 0 Z " fill="#D14048" transform="translate(380,529)"/>
<path d="M0 0 C1.32 0 2.64 0 4 0 C5.8125 2.5 5.8125 2.5 6.79296875 4.13671875 C9.35503136 8.09174744 12.73458725 12.86729363 17 15 C16.67 15.99 16.34 16.98 16 18 C9.73875064 13.07093135 4.78429486 7.36821107 0 1 C0 0.67 0 0.34 0 0 Z " fill="#CC434C" transform="translate(228,493)"/>
<path d="M0 0 C11.55 0.33 23.1 0.66 35 1 C35 1.33 35 1.66 35 2 C27.08 2.495 27.08 2.495 19 3 C19 3.33 19 3.66 19 4 C14.83861737 4.08159574 11.0527516 3.98248524 7 3 C7 2.67 7 2.34 7 2 C4.69 1.67 2.38 1.34 0 1 C0 0.67 0 0.34 0 0 Z " fill="#EA757A" transform="translate(274,621)"/>
<path d="M0 0 C0.66 0 1.32 0 2 0 C2 0.99 2 1.98 2 3 C2.66 3.33 3.32 3.66 4 4 C6.125 5.4375 6.125 5.4375 8 7 C8 7.66 8 8.32 8 9 C6.58249437 8.88490339 5.16598831 8.75746342 3.75 8.625 C2.56664062 8.52058594 2.56664062 8.52058594 1.359375 8.4140625 C-1.085877 7.98492887 -2.84836903 7.21399362 -5 6 C-5 5.34 -5 4.68 -5 4 C-4.360625 3.71125 -3.72125 3.4225 -3.0625 3.125 C-0.84793921 2.17176549 -0.84793921 2.17176549 0 0 Z " fill="#DA2A34" transform="translate(380,537)"/>
<path d="M0 0 C3.36143418 1.12047806 4.57528834 2.49707183 7 5 C7.66 5.33 8.32 5.66 9 6 C9.4140625 8.28515625 9.4140625 8.28515625 9.625 11.0625 C9.69976562 11.98160156 9.77453125 12.90070313 9.8515625 13.84765625 C9.90054688 14.55792969 9.94953125 15.26820313 10 16 C7.21234235 13.4696646 5.32536505 10.60660199 3.3125 7.4375 C2.68988281 6.46683594 2.06726563 5.49617188 1.42578125 4.49609375 C0 2 0 2 0 0 Z " fill="#D93A42" transform="translate(166,409)"/>
<path d="M0 0 C0.66 0.33 1.32 0.66 2 1 C2 2.65 2 4.3 2 6 C1.1646875 6.3403125 1.1646875 6.3403125 0.3125 6.6875 C-2.21191217 7.98476448 -2.21191217 7.98476448 -4.5625 10.5625 C-7 13 -7 13 -10 14 C-8.62815653 9.93501119 -6.77931541 7.32603439 -3.875 4.1875 C-3.15054688 3.39730469 -2.42609375 2.60710938 -1.6796875 1.79296875 C-1.12539062 1.20128906 -0.57109375 0.60960937 0 0 Z " fill="#D6525B" transform="translate(169,554)"/>
<path d="M0 0 C0.99 0.33 1.98 0.66 3 1 C2.41509121 7.14154225 1.45933748 13.00679849 0 19 C-0.33 19 -0.66 19 -1 19 C-2.10765663 12.13252891 -1.700773 6.73281213 0 0 Z " fill="#DA414D" transform="translate(507,283)"/>
<path d="M0 0 C0.639375 0.33 1.27875 0.66 1.9375 1 C3.76794567 2.07271225 3.76794567 2.07271225 5 2 C8 2 8 2 11 3 C11.33 4.65 11.66 6.3 12 8 C8.8125 8.375 8.8125 8.375 5 8 C2.7527123 6.19771976 1.62056576 4.45540267 0 2 C0 1.34 0 0.68 0 0 Z " fill="#E41F25" transform="translate(160,595)"/>
<path d="M0 0 C1.28132813 0.19464844 2.56265625 0.38929688 3.8828125 0.58984375 C4.87023437 0.74582031 5.85765625 0.90179687 6.875 1.0625 C6.875 1.3925 6.875 1.7225 6.875 2.0625 C3.575 2.0625 0.275 2.0625 -3.125 2.0625 C-2.465 3.7125 -1.805 5.3625 -1.125 7.0625 C-2.445 7.3925 -3.765 7.7225 -5.125 8.0625 C-6.445 5.4225 -7.765 2.7825 -9.125 0.0625 C-6.01752306 -1.49123847 -3.38273473 -0.52278628 0 0 Z " fill="#DF4149" transform="translate(390.125,527.9375)"/>
<path d="M0 0 C2.31 0 4.62 0 7 0 C5.10060262 1.89939738 3.73748786 2.75995069 1.375 3.9453125 C0.66859375 4.29980469 -0.0378125 4.65429688 -0.765625 5.01953125 C-1.50296875 5.38433594 -2.2403125 5.74914062 -3 6.125 C-3.73734375 6.49753906 -4.4746875 6.87007812 -5.234375 7.25390625 C-10.7466804 10 -10.7466804 10 -13 10 C-13.33 8.68 -13.66 7.36 -14 6 C-12.02 6 -10.04 6 -8 6 C-8 5.34 -8 4.68 -8 4 C-7.01 4 -6.02 4 -5 4 C-5 3.34 -5 2.68 -5 2 C-3.35 1.67 -1.7 1.34 0 1 C0 0.67 0 0.34 0 0 Z " fill="#CE3B44" transform="translate(263,141)"/>
<path d="M0 0 C4.87072783 4.56630734 8.89156398 9.74976539 13 15 C12.01 15.33 11.02 15.66 10 16 C10 15.34 10 14.68 10 14 C8.35 14 6.7 14 5 14 C5.0825 13.236875 5.165 12.47375 5.25 11.6875 C5.1675 10.800625 5.085 9.91375 5 9 C4.360625 8.525625 3.72125 8.05125 3.0625 7.5625 C1 6 1 6 0.25 2.8125 C0.12625 1.4203125 0.12625 1.4203125 0 0 Z " fill="#D13940" transform="translate(463,110)"/>
<path d="M0 0 C0.87840996 3.09720845 0.99435406 4.90645403 0 8 C-0.66 8 -1.32 8 -2 8 C-2 8.66 -2 9.32 -2 10 C-2.99 10 -3.98 10 -5 10 C-5.33 10.99 -5.66 11.98 -6 13 C-6.66 13 -7.32 13 -8 13 C-8.33 14.32 -8.66 15.64 -9 17 C-9.66 17 -10.32 17 -11 17 C-9.52869627 12.6426774 -7.16919385 9.28065866 -4.375 5.6875 C-3.95476562 5.13771484 -3.53453125 4.58792969 -3.1015625 4.02148438 C-2.07279961 2.67707832 -1.0370991 1.33798587 0 0 Z " fill="#D63A44" transform="translate(153,118)"/>
<path d="M0 0 C1.17482324 3.47454806 1.06339535 3.8675142 -0.65234375 7.453125 C-1.40158685 8.72617522 -2.16382013 9.99165126 -2.9375 11.25 C-3.32357422 11.8996875 -3.70964844 12.549375 -4.10742188 13.21875 C-5.06058418 14.81912129 -6.02885924 16.4104742 -7 18 C-7.99 18 -8.98 18 -10 18 C-10 14.23603741 -8.89081604 13.12661895 -6.6875 10.125 C-4.28376778 6.82931684 -2.05371326 3.52606769 0 0 Z " fill="#D86D72" transform="translate(416,310)"/>
<path d="M0 0 C6.82423338 1.23416987 13.39367844 2.8915995 20 5 C20 5.33 20 5.66 20 6 C17.56152549 5.88602456 15.12486826 5.75929026 12.6875 5.625 C11.65206055 5.57859375 11.65206055 5.57859375 10.59570312 5.53125 C6.93009211 5.31875081 5.12099208 5.08066139 2 3 C2 2.34 2 1.68 2 1 C1.34 0.67 0.68 0.34 0 0 Z " fill="#D8505B" transform="translate(398,530)"/>
<path d="M0 0 C2.36906579 3.03469454 4.39210262 6.16336684 6.3125 9.5 C6.86550781 10.4384375 7.41851562 11.376875 7.98828125 12.34375 C9 15 9 15 8.16796875 17.34375 C7.78253906 17.8903125 7.39710938 18.436875 7 19 C7 18.01 7 17.02 7 16 C6.34 16 5.68 16 5 16 C1.91532502 10.60540561 0.44356295 6.20988129 0 0 Z " fill="#D6555D" transform="translate(202,300)"/>
<path d="M0 0 C0.99 0.33 1.98 0.66 3 1 C1.71034824 2.37562854 0.37310707 3.70766393 -1 5 C-1.66 5 -2.32 5 -3 5 C-3 5.66 -3 6.32 -3 7 C-6.08809695 8.76462683 -7.23312136 9 -11 9 C-11.33 9.99 -11.66 10.98 -12 12 C-12.66 11.34 -13.32 10.68 -14 10 C-12.22970554 8.70759488 -10.45874502 7.41610207 -8.6875 6.125 C-7.70136719 5.40570313 -6.71523437 4.68640625 -5.69921875 3.9453125 C-3.82476885 2.5944065 -1.92247007 1.28164671 0 0 Z " fill="#D44953" transform="translate(206,70)"/>
<path d="M0 0 C4.91441412 1.43652105 9.00238358 3.54159615 13.375 6.125 C14.01566406 6.49753906 14.65632813 6.87007813 15.31640625 7.25390625 C16.88048477 8.16434002 18.44065534 9.08148191 20 10 C16.28125 11.1171875 16.28125 11.1171875 13.75 10.0625 C13.1725 9.711875 12.595 9.36125 12 9 C12 8.34 12 7.68 12 7 C10.948125 6.8453125 10.948125 6.8453125 9.875 6.6875 C6.55790773 5.89428228 3.93461621 4.7340914 1 3 C0.67 2.01 0.34 1.02 0 0 Z " fill="#D9636C" transform="translate(396,59)"/>
<path d="M0 0 C0.99 0.33 1.98 0.66 3 1 C1.35828571 3.50279492 -0.28810259 6.00227677 -1.9375 8.5 C-2.40607422 9.21542969 -2.87464844 9.93085938 -3.35742188 10.66796875 C-4.54548488 12.46288408 -5.76986521 14.2336526 -7 16 C-7.33 16 -7.66 16 -8 16 C-8 14.02 -8 12.04 -8 10 C-6.68 9.34 -5.36 8.68 -4 8 C-4 6.68 -4 5.36 -4 4 C-3.34 4 -2.68 4 -2 4 C-1.34 2.68 -0.68 1.36 0 0 Z " fill="#D33D47" transform="translate(447,422)"/>
<path d="M0 0 C3.25666272 0.56149357 4.95623323 1.37229986 7 4 C7.75 6.0625 7.75 6.0625 8 8 C7.67 8.66 7.34 9.32 7 10 C5 10 5 10 2.375 7.75 C-0.39798563 4.53917453 0 4.20426086 0 0 Z " fill="#EC2932" transform="translate(400,162)"/>
<path d="M0 0 C-1.37140166 3.67694648 -3.03695801 6.95318589 -5.0625 10.3125 C-5.58972656 11.19550781 -6.11695313 12.07851563 -6.66015625 12.98828125 C-7.10230469 13.65214844 -7.54445313 14.31601562 -8 15 C-8.33 15 -8.66 15 -9 15 C-9.125 9.25 -9.125 9.25 -8 7 C-7.34 7 -6.68 7 -6 7 C-6 6.34 -6 5.68 -6 5 C-5.34 5 -4.68 5 -4 5 C-4 3.68 -4 2.36 -4 1 C-2 0 -2 0 0 0 Z " fill="#D1444C" transform="translate(467,394)"/>
<path d="M0 0 C0.33 1.32 0.66 2.64 1 4 C-1.3125 6.75 -1.3125 6.75 -4 9 C-4.66 9 -5.32 9 -6 9 C-6.433125 10.2065625 -6.433125 10.2065625 -6.875 11.4375 C-8 14 -8 14 -10 15 C-10.33 14.01 -10.66 13.02 -11 12 C-7.37 8.04 -3.74 4.08 0 0 Z " fill="#D1444D" transform="translate(404,328)"/>
<path d="M0 0 C0.33 0 0.66 0 1 0 C1.06058594 0.69867187 1.12117187 1.39734375 1.18359375 2.1171875 C1.26738281 3.02726563 1.35117188 3.93734375 1.4375 4.875 C1.55931641 6.23238281 1.55931641 6.23238281 1.68359375 7.6171875 C1.86989285 10.01110861 1.86989285 10.01110861 3 12 C3.039992 13.99960012 3.04346799 16.00047242 3 18 C3.66 18 4.32 18 5 18 C4.67 19.32 4.34 20.64 4 22 C0.45643985 18.29536894 -0.44901304 13.95888265 -1 9 C-0.87913736 5.9226513 -0.48432013 3.05121684 0 0 Z " fill="#D86A72" transform="translate(156,573)"/>
<path d="M0 0 C1.32 0.33 2.64 0.66 4 1 C0.37 4.63 -3.26 8.26 -7 12 C-7.33 10.68 -7.66 9.36 -8 8 C-6.1875 5.9375 -6.1875 5.9375 -4 4 C-3.34 3.01 -2.68 2.02 -2 1 C-1.34 1.33 -0.68 1.66 0 2 C0 1.34 0 0.68 0 0 Z " fill="#D23845" transform="translate(337,551)"/>
<path d="M0 0 C0.928125 0.2475 1.85625 0.495 2.8125 0.75 C3.76576172 0.95496094 3.76576172 0.95496094 4.73828125 1.1640625 C8.9372281 2.0971618 12.21669308 3.27788274 15.8125 5.75 C13.1970928 7.0577036 12.2484478 6.51582573 9.4609375 5.75390625 C8.61015625 5.52509766 7.759375 5.29628906 6.8828125 5.06054688 C5.99335938 4.81369141 5.10390625 4.56683594 4.1875 4.3125 C3.2903125 4.06951172 2.393125 3.82652344 1.46875 3.57617188 C-0.75181158 2.97378549 -2.97035481 2.36481999 -5.1875 1.75 C-2.1875 -0.25 -2.1875 -0.25 0 0 Z " fill="#CB3944" transform="translate(394.1875,545.25)"/>
<path d="M0 0 C2.5 0.3125 2.5 0.3125 5 1 C6.39935013 3.79870027 6.25265405 5.90498792 6 9 C4.484375 10.69140625 4.484375 10.69140625 3 12 C2.87882812 11.37351562 2.75765625 10.74703125 2.6328125 10.1015625 C2.46523438 9.28429687 2.29765625 8.46703125 2.125 7.625 C1.96257812 6.81289063 1.80015625 6.00078125 1.6328125 5.1640625 C1.13341068 2.81326077 1.13341068 2.81326077 -1 1 C-0.67 0.67 -0.34 0.34 0 0 Z " fill="#EC2932" transform="translate(378,357)"/>
<path d="M0 0 C0.66 0 1.32 0 2 0 C2 1.65 2 3.3 2 5 C2.66 5 3.32 5 4 5 C4.8723412 7.99480917 5.10829766 10.63575911 5.0625 13.75 C5.05347656 14.54921875 5.04445313 15.3484375 5.03515625 16.171875 C5.01775391 17.07679688 5.01775391 17.07679688 5 18 C1.36039816 12.54059724 -0.5073946 6.59612984 0 0 Z " fill="#D34A54" transform="translate(121,310)"/>
<path d="M0 0 C0.33 0 0.66 0 1 0 C2.23402862 4.77092956 2.11265112 9.42469446 2.0625 14.3125 C2.05798828 15.14845703 2.05347656 15.98441406 2.04882812 16.84570312 C2.03710548 18.89716649 2.01917203 20.94859273 2 23 C1.67 23 1.34 23 1 23 C1 20.03 1 17.06 1 14 C0.34 14 -0.32 14 -1 14 C-2.59789351 9.04653013 -1.28306814 4.86717585 0 0 Z " fill="#D9444C" transform="translate(510,201)"/>
<path d="M0 0 C-2.77579761 2.77579761 -5.30306937 2.86061387 -9.125 3.625 C-10.40632812 3.88539063 -11.68765625 4.14578125 -13.0078125 4.4140625 C-13.99523437 4.60742188 -14.98265625 4.80078125 -16 5 C-14.2578125 1.1640625 -14.2578125 1.1640625 -11.9375 -0.3125 C-7.81770963 -1.27670626 -4.13975006 -0.66741069 0 0 Z " fill="#D23440" transform="translate(233,546)"/>
<path d="M0 0 C2.31 0 4.62 0 7 0 C5.34908222 4.29238623 2.26245434 6.8793915 -1 10 C-1.66 9.67 -2.32 9.34 -3 9 C-2.505 8.071875 -2.01 7.14375 -1.5 6.1875 C0.21289852 3.13472484 0.21289852 3.13472484 0 0 Z " fill="#D92F34" transform="translate(225,163)"/>
<path d="M0 0 C1.859375 0.25390625 1.859375 0.25390625 4 1 C5.265625 2.77734375 5.265625 2.77734375 6.25 4.9375 C6.58515625 5.64777344 6.9203125 6.35804688 7.265625 7.08984375 C8 9 8 9 8 11 C6.68 11.33 5.36 11.66 4 12 C2.64560332 9.29120665 2.93498549 6.99066732 3 4 C2.34 4 1.68 4 1 4 C0.67 2.68 0.34 1.36 0 0 Z " fill="#E71F2B" transform="translate(447,573)"/>
<path d="M0 0 C4.39383706 1.59623144 8.28995807 3.78024333 12.3125 6.125 C12.95767578 6.49753906 13.60285156 6.87007813 14.26757812 7.25390625 C15.84675945 8.16632213 17.42361864 9.08275509 19 10 C18.01 10.66 17.02 11.32 16 12 C16 11.34 16 10.68 16 10 C13.03 9.505 13.03 9.505 10 9 C9.67 8.01 9.34 7.02 9 6 C7.68 6 6.36 6 5 6 C5 5.34 5 4.68 5 4 C4.360625 3.896875 3.72125 3.79375 3.0625 3.6875 C2.381875 3.460625 1.70125 3.23375 1 3 C0.67 2.01 0.34 1.02 0 0 Z " fill="#D2525D" transform="translate(243,351)"/>
<path d="M0 0 C4.29454434 1.92514057 6.39681345 4.09522017 9 8 C9.125 10.6875 9.125 10.6875 9 13 C8.01 13.495 8.01 13.495 7 14 C5.82807953 12.04480616 4.6626071 10.0857461 3.5 8.125 C2.8503125 7.03445312 2.200625 5.94390625 1.53125 4.8203125 C0 2 0 2 0 0 Z " fill="#D63741" transform="translate(412,188)"/>
<path d="M0 0 C3.3 0.33 6.6 0.66 10 1 C10 1.33 10 1.66 10 2 C7.47980028 2.33885038 4.95901484 2.67120335 2.4375 3 C1.73302734 3.09539063 1.02855469 3.19078125 0.30273438 3.2890625 C-4.17367855 3.86666417 -8.48661238 4.09489383 -13 4 C-13 3.34 -13 2.68 -13 2 C-8.71 2 -4.42 2 0 2 C0 1.34 0 0.68 0 0 Z " fill="#CC434B" transform="translate(363,635)"/>
<path d="M0 0 C0.99 0 1.98 0 3 0 C3.4375 2.125 3.4375 2.125 3 5 C0.87310854 7.276147 -1.5023433 9.1458722 -4 11 C-4 9.02 -4 7.04 -4 5 C-2.68 5 -1.36 5 0 5 C0 4.34 0 3.68 0 3 C-0.66 2.67 -1.32 2.34 -2 2 C-1.34 1.34 -0.68 0.68 0 0 Z " fill="#E23943" transform="translate(375,510)"/>
<path d="M0 0 C0.99 0 1.98 0 3 0 C3.67667998 1.24460783 4.34094719 2.49596896 5 3.75 C5.556875 4.79414063 5.556875 4.79414063 6.125 5.859375 C7 8 7 8 7 12 C7.66 12 8.32 12 9 12 C8.67 13.32 8.34 14.64 8 16 C6.66141476 13.71125827 5.32898986 11.41930344 4 9.125 C3.6184375 8.47402344 3.236875 7.82304687 2.84375 7.15234375 C0 2.2265625 0 2.2265625 0 0 Z " fill="#D54C54" transform="translate(148,378)"/>
<path d="M0 0 C2.375 -0.125 2.375 -0.125 5 0 C5.66 0.66 6.32 1.32 7 2 C6.625 4.625 6.625 4.625 6 7 C4.35 6.67 2.7 6.34 1 6 C0.67 4.02 0.34 2.04 0 0 Z " fill="#E31E27" transform="translate(362,370)"/>
<path d="M0 0 C0.33 0 0.66 0 1 0 C1.64829562 2.70776494 2.29370602 5.41616445 2.9375 8.125 C3.11990234 8.88554687 3.30230469 9.64609375 3.49023438 10.4296875 C4.47990173 14.60428434 5.35572979 18.75459839 6 23 C5.34 23 4.68 23 4 23 C3.87625 22.195625 3.7525 21.39125 3.625 20.5625 C3.41875 19.716875 3.2125 18.87125 3 18 C2.34 17.67 1.68 17.34 1 17 C0.67 11.39 0.34 5.78 0 0 Z " fill="#D45B62" transform="translate(194,272)"/>
<path d="M0 0 C2.97 0.495 2.97 0.495 6 1 C6.33 2.98 6.66 4.96 7 7 C4.03 6.505 4.03 6.505 1 6 C0.67 4.02 0.34 2.04 0 0 Z " fill="#E41D28" transform="translate(191,199)"/>
<path d="M0 0 C0 0.33 0 0.66 0 1 C-2.72892283 1.64687807 -5.45812447 2.29253718 -8.1875 2.9375 C-8.95642578 3.11990234 -9.72535156 3.30230469 -10.51757812 3.49023438 C-14.33440092 4.39120113 -18.14656426 5.26637997 -22 6 C-22.33 5.34 -22.66 4.68 -23 4 C-15.15025438 1.22642321 -8.33589794 -0.14372238 0 0 Z " fill="#CA3840" transform="translate(293,135)"/>
<path d="M0 0 C-2.87108918 0.86975343 -5.74562533 1.72100833 -8.625 2.5625 C-9.43324219 2.80935547 -10.24148438 3.05621094 -11.07421875 3.31054688 C-15.75653068 4.66194585 -19.15835587 5.30834073 -24 4 C-24 3.67 -24 3.34 -24 3 C-20.75290806 2.29825244 -17.50199748 1.61611931 -14.25 0.9375 C-13.32960938 0.73833984 -12.40921875 0.53917969 -11.4609375 0.33398438 C-10.57148438 0.15029297 -9.68203125 -0.03339844 -8.765625 -0.22265625 C-7.94868164 -0.39547119 -7.13173828 -0.56828613 -6.29003906 -0.74633789 C-3.89799506 -1.01129884 -2.27474929 -0.73312703 0 0 Z " fill="#D96971" transform="translate(282,44)"/>
<path d="M0 0 C1.32 0.66 2.64 1.32 4 2 C3.04270084 3.12588014 2.08412105 4.2506715 1.125 5.375 C0.59132812 6.00148438 0.05765625 6.62796875 -0.4921875 7.2734375 C-1.61432007 8.55836651 -2.79371975 9.79371975 -4 11 C-4.66 11 -5.32 11 -6 11 C-5.67 10.4225 -5.34 9.845 -5 9.25 C-3.72924102 6.80116138 -3.72924102 6.80116138 -4 3 C-3.01 2.67 -2.02 2.34 -1 2 C-0.67 1.34 -0.34 0.68 0 0 Z " fill="#DB333C" transform="translate(179,565)"/>
<path d="M0 0 C0.33 0 0.66 0 1 0 C1.02686553 1.97909398 1.04633375 3.95828971 1.0625 5.9375 C1.07410156 7.03964844 1.08570312 8.14179688 1.09765625 9.27734375 C1 12 1 12 0 13 C-0.36760731 15.32817964 -0.70241581 17.6618385 -1 20 C-1.33 20 -1.66 20 -2 20 C-2.0544452 17.79194476 -2.09299283 15.58349446 -2.125 13.375 C-2.14820312 12.14523438 -2.17140625 10.91546875 -2.1953125 9.6484375 C-2.0030428 6.05683959 -1.30258556 3.33338825 0 0 Z " fill="#D14249" transform="translate(114,200)"/>
<path d="M0 0 C3.6277553 4.01644336 6.69132829 8.69893124 8 14 C7.1015625 16.27734375 7.1015625 16.27734375 6 18 C4.74335022 15.09399739 4 13.20395416 4 10 C3.34 10 2.68 10 2 10 C2 8.02 2 6.04 2 4 C1.34 4 0.68 4 0 4 C0 2.68 0 1.36 0 0 Z " fill="#D44E57" transform="translate(491,150)"/>
<path d="M0 0 C4.01751046 3.42232372 7.2891114 7.99080039 9 13 C8.1328125 15.28125 8.1328125 15.28125 7 17 C6.54625 15.88625 6.0925 14.7725 5.625 13.625 C4.27534014 10.03800992 4.27534014 10.03800992 2 8 C1.1436973 5.36766208 0.61070073 2.70453182 0 0 Z " fill="#D34750" transform="translate(482,135)"/>
<path d="M0 0 C3.3 0 6.6 0 10 0 C10 0.99 10 1.98 10 3 C10.66 3 11.32 3 12 3 C12 3.66 12 4.32 12 5 C14.97 5.495 14.97 5.495 18 6 C16.453125 7.2109375 16.453125 7.2109375 14 8 C11.39484836 6.99212459 9.17152464 5.96372907 6.75 4.625 C6.1003125 4.28210938 5.450625 3.93921875 4.78125 3.5859375 C3.17989869 2.73816328 1.58888556 1.87091321 0 1 C0 0.67 0 0.34 0 0 Z " fill="#D03941" transform="translate(421,556)"/>
<path d="M0 0 C1.875 0.3125 1.875 0.3125 4 1 C4.66 1.99 5.32 2.98 6 4 C6.61875 3.690625 7.2375 3.38125 7.875 3.0625 C9.25 2.375 10.625 1.6875 12 1 C11.67 3.64 11.34 6.28 11 9 C10.34 8.67 9.68 8.34 9 8 C9 7.34 9 6.68 9 6 C8.2575 6.103125 7.515 6.20625 6.75 6.3125 C4 6 4 6 1.6875 3.5625 C0 1 0 1 0 0 Z " fill="#DF343E" transform="translate(223,487)"/>
<path d="M0 0 C3.9036874 3.46994436 6.36588975 7.55224006 9 12 C8.01 12.495 8.01 12.495 7 13 C3.27269402 10.35165101 1.22555237 8.45655408 0 4 C0 2.68 0 1.36 0 0 Z " fill="#D64D54" transform="translate(211,317)"/>
<path d="M0 0 C3.26008643 3.16952847 6.22237877 6.39937989 9 10 C8.01 10 7.02 10 6 10 C5.54625 9.525625 5.0925 9.05125 4.625 8.5625 C2.53633317 6.55416651 0.8216552 6.38130476 -2 6 C-1.34 4.02 -0.68 2.04 0 0 Z " fill="#DD525C" transform="translate(175,585)"/>
<path d="M0 0 C1.32 0.33 2.64 0.66 4 1 C3.09827532 2.17825358 2.17798498 3.34231577 1.25 4.5 C0.48429687 5.47453125 0.48429687 5.47453125 -0.296875 6.46875 C-2 8 -2 8 -6 8 C-5.34 6.35 -4.68 4.7 -4 3 C-3.34 3 -2.68 3 -2 3 C-1.34 2.01 -0.68 1.02 0 0 Z " fill="#D63840" transform="translate(321,565)"/>
<path d="M0 0 C3.26105543 0.96950297 4.70507907 1.55761861 6.625 4.4375 C7.07875 5.283125 7.5325 6.12875 8 7 C8.53625 7.53625 9.0725 8.0725 9.625 8.625 C11 10 11 10 12 13 C11.01 13 10.02 13 9 13 C7.29928977 11.05255461 5.80452995 9.15895676 4.3125 7.0625 C3.89677734 6.49853516 3.48105469 5.93457031 3.05273438 5.35351562 C0 1.16791102 0 1.16791102 0 0 Z " fill="#D65964" transform="translate(401,174)"/>
<path d="M0 0 C1 3 1 3 -0.25 6.5 C-1.71498993 9.42997985 -2.56943068 10.97452557 -5 13 C-5.556875 13.556875 -6.11375 14.11375 -6.6875 14.6875 C-7.120625 15.120625 -7.55375 15.55375 -8 16 C-8.33 15.34 -8.66 14.68 -9 14 C-7.58902133 11.54330645 -6.13956406 9.22085376 -4.5625 6.875 C-4.12873047 6.21628906 -3.69496094 5.55757812 -3.24804688 4.87890625 C-2.17250886 3.24787057 -1.08715514 1.62331547 0 0 Z " fill="#D75B64" transform="translate(141,135)"/>
<path d="M0 0 C0.33 0 0.66 0 1 0 C0.88512252 1.58409994 0.75765492 3.16728963 0.625 4.75 C0.55539063 5.63171875 0.48578125 6.5134375 0.4140625 7.421875 C0.00149945 9.99066382 -0.71160957 11.75841015 -2 14 C-2.66 14 -3.32 14 -4 14 C-4.33 14.99 -4.66 15.98 -5 17 C-4.46246904 10.81839396 -2.45417612 5.673142 0 0 Z " fill="#DB7276" transform="translate(123,168)"/>
<path d="M0 0 C6.7685324 -0.10152799 13.30324864 -0.03026944 20 1 C20 1.33 20 1.66 20 2 C6.3667426 3.51708428 6.3667426 3.51708428 0 1 C0 0.67 0 0.34 0 0 Z " fill="#CA282F" transform="translate(262,621)"/>
<path d="M0 0 C-5.79424351 3.59058175 -9.30403958 4.43484866 -16 3 C-11.08294543 0.13171817 -5.53605896 -1.7423757 0 0 Z " fill="#D75058" transform="translate(402,613)"/>
<path d="M0 0 C0.66 1.65 1.32 3.3 2 5 C0.02 5.99 0.02 5.99 -2 7 C-3.32 5.68 -4.64 4.36 -6 3 C-2.25 0 -2.25 0 0 0 Z " fill="#E41F28" transform="translate(195,543)"/>
<path d="M0 0 C10.395 1.98 10.395 1.98 21 4 C21 4.33 21 4.66 21 5 C14.64987282 6.19514865 10.93009556 5.96504778 5 3 C2.22111387 2.30859478 2.22111387 2.30859478 0 2 C0 1.34 0 0.68 0 0 Z " fill="#D45963" transform="translate(276,367)"/>
<path d="M0 0 C0.66 0 1.32 0 2 0 C2 0.66 2 1.32 2 2 C2.99 2.33 3.98 2.66 5 3 C4.67 6.63 4.34 10.26 4 14 C0.7354972 10.7354972 0.06763945 6.58952701 -0.125 2.0625 C-0.08375 1.381875 -0.0425 0.70125 0 0 Z " fill="#DD242E" transform="translate(115,283)"/>
<path d="M0 0 C2 0 2 0 3.625 1.3125 C5 3 5 3 5 6 C3.3125 6.8125 3.3125 6.8125 1 7 C-1.75 4.5625 -1.75 4.5625 -4 2 C-2.68 2 -1.36 2 0 2 C0 1.34 0 0.68 0 0 Z " fill="#EC2832" transform="translate(268,130)"/>
<path d="M0 0 C3.08089673 2.77280706 4.68775452 5.06326356 6 9 C5.34 9.66 4.68 10.32 4 11 C4 10.01 4 9.02 4 8 C3.38125 7.7525 2.7625 7.505 2.125 7.25 C-0.35068687 5.79371361 -0.95125002 4.62187494 -2 2 C-1.34 2 -0.68 2 0 2 C0 1.34 0 0.68 0 0 Z " fill="#D9404B" transform="translate(476,126)"/>
<path d="M0 0 C-5.93852229 3.95901486 -12.08104381 4.24710558 -19 4 C-13.06147771 0.04098514 -6.91895619 -0.24710558 0 0 Z " fill="#D42430" transform="translate(290,43)"/>
<path d="M0 0 C1.32 0 2.64 0 4 0 C2.59023295 3.03852705 0.91129772 5.5939595 -1.125 8.25 C-1.66382813 8.95640625 -2.20265625 9.6628125 -2.7578125 10.390625 C-3.16773438 10.92171875 -3.57765625 11.4528125 -4 12 C-5.09658936 8.71023192 -4.79953138 7.28696233 -4 4 C-2.68 4 -1.36 4 0 4 C0 2.68 0 1.36 0 0 Z " fill="#D14048" transform="translate(421,457)"/>
<path d="M0 0 C0.99 0.33 1.98 0.66 3 1 C0.36 4.63 -2.28 8.26 -5 12 C-5.66 11.67 -6.32 11.34 -7 11 C-7 10.01 -7 9.02 -7 8 C-5.35 7.34 -3.7 6.68 -2 6 C-2 4.68 -2 3.36 -2 2 C-1.34 2 -0.68 2 0 2 C0 1.34 0 0.68 0 0 Z " fill="#D2404B" transform="translate(431,445)"/>
<path d="M0 0 C2.0625 0.4375 2.0625 0.4375 4 1 C3.67 2.32 3.34 3.64 3 5 C-0.32534757 6.10844919 -2.62182575 5.84454356 -6 5 C-5.195625 4.360625 -4.39125 3.72125 -3.5625 3.0625 C-1.7249496 1.59396498 -1.7249496 1.59396498 0 0 Z " fill="#DC4D56" transform="translate(377,352)"/>
<path d="M0 0 C1.98 1.65 3.96 3.3 6 5 C4.68 6.32 3.36 7.64 2 9 C2 8.34 2 7.68 2 7 C1.34 7 0.68 7 0 7 C-0.66 5.68 -1.32 4.36 -2 3 C-1.34 2.01 -0.68 1.02 0 0 Z " fill="#E02129" transform="translate(412,321)"/>
<path d="M0 0 C0.99 0 1.98 0 3 0 C1.58707905 4.8274799 -0.42974154 8.7162359 -3 13 C-4.2942471 10.41150579 -3.81710662 9.29019914 -3.1875 6.5 C-3.01605469 5.7059375 -2.84460938 4.911875 -2.66796875 4.09375 C-2 2 -2 2 0 0 Z " fill="#CF424C" transform="translate(205,194)"/>
<path d="M0 0 C2.55694972 3.83542457 2.04045639 5.65902533 1.625 10.1875 C1.51414063 11.45980469 1.40328125 12.73210938 1.2890625 14.04296875 C1.19367188 15.01878906 1.09828125 15.99460937 1 17 C-1 15 -1 15 -1.23046875 12.03125 C-1.21628906 10.8659375 -1.20210937 9.700625 -1.1875 8.5 C-1.17783203 6.75203125 -1.17783203 6.75203125 -1.16796875 4.96875 C-1 2 -1 2 0 0 Z " fill="#D63C44" transform="translate(158,568)"/>
<path d="M0 0 C0.66 0.33 1.32 0.66 2 1 C0.58707905 5.8274799 -1.42974154 9.7162359 -4 14 C-4.33 14 -4.66 14 -5 14 C-5 12.35 -5 10.7 -5 9 C-4.34 9 -3.68 9 -3 9 C-2.87625 8.2575 -2.7525 7.515 -2.625 6.75 C-2.04513299 4.19858515 -1.26291261 2.2732427 0 0 Z " fill="#D3505C" transform="translate(477,371)"/>
<path d="M0 0 C0.99 0 1.98 0 3 0 C2 3 2 3 -0.8125 4.75 C-3.96403086 5.98589446 -4.96929372 6.28222189 -8 5 C-8 4.01 -8 3.02 -8 2 C-5.525 2.495 -5.525 2.495 -3 3 C-2.67 2.34 -2.34 1.68 -2 1 C-1.34 1.33 -0.68 1.66 0 2 C0 1.34 0 0.68 0 0 Z " fill="#D63841" transform="translate(436,615)"/>
<path d="M0 0 C-2.64 2.64 -5.28 5.28 -8 8 C-8.33 6.68 -8.66 5.36 -9 4 C-8.01 3.67 -7.02 3.34 -6 3 C-6 2.01 -6 1.02 -6 0 C-4 -1 -4 -1 0 0 Z " fill="#D64A54" transform="translate(461,601)"/>
<path d="M0 0 C1.43931117 0.45261358 2.87638999 0.91232979 4.3125 1.375 C5.11300781 1.63023437 5.91351563 1.88546875 6.73828125 2.1484375 C9 3 9 3 12 5 C8.69564916 6.12377697 6.9493138 5.89554742 3.75 4.5625 C3.04359375 4.27503906 2.3371875 3.98757813 1.609375 3.69140625 C1.07828125 3.46324219 0.5471875 3.23507812 0 3 C0 2.01 0 1.02 0 0 Z " fill="#D84F59" transform="translate(424,538)"/>
<path d="M0 0 C2.35171131 0.59861742 4.6859378 1.26924352 7 2 C7.33 2.66 7.66 3.32 8 4 C7.0625 6.125 7.0625 6.125 6 8 C1.125 3.375 1.125 3.375 0 0 Z " fill="#D93841" transform="translate(199,457)"/>
<path d="M0 0 C0.33 0 0.66 0 1 0 C1 5.61 1 11.22 1 17 C0.01 17.33 -0.98 17.66 -2 18 C-1.34 12.06 -0.68 6.12 0 0 Z " fill="#DC686E" transform="translate(430,263)"/>
<path d="M0 0 C8.415 1.485 8.415 1.485 17 3 C17 3.33 17 3.66 17 4 C11.06 4 5.12 4 -1 4 C-0.67 2.68 -0.34 1.36 0 0 Z " fill="#D82831" transform="translate(348,45)"/>
<path d="M0 0 C1.77155654 0.11429397 3.54226229 0.24183037 5.3125 0.375 C6.79169922 0.47941406 6.79169922 0.47941406 8.30078125 0.5859375 C11 1 11 1 14 3 C12.58456585 3.19658808 11.16755969 3.38187546 9.75 3.5625 C8.96109375 3.66691406 8.1721875 3.77132812 7.359375 3.87890625 C4.93653563 4.00325728 3.24988135 3.91090329 1 3 C0.67 2.01 0.34 1.02 0 0 Z " fill="#EB2C34" transform="translate(275,623)"/>
<path d="M0 0 C-1.32 0.33 -2.64 0.66 -4 1 C-4.33 2.32 -4.66 3.64 -5 5 C-6.98 5.33 -8.96 5.66 -11 6 C-11.33 5.01 -11.66 4.02 -12 3 C-10.3789897 2.30314502 -8.75303934 1.61777139 -7.125 0.9375 C-6.22007812 0.55464844 -5.31515625 0.17179688 -4.3828125 -0.22265625 C-2 -1 -2 -1 0 0 Z " fill="#DA4F59" transform="translate(424,605)"/>
<path d="M0 0 C0.66 0.33 1.32 0.66 2 1 C1.42365861 5.75481646 -0.55068521 8.97048212 -3 13 C-3.33 13 -3.66 13 -4 13 C-4 11.35 -4 9.7 -4 8 C-3.34 8 -2.68 8 -2 8 C-1.855625 6.865625 -1.71125 5.73125 -1.5625 4.5625 C-1 1 -1 1 0 0 Z " fill="#D04F53" transform="translate(465,587)"/>
<path d="M0 0 C2.5 1.25 2.5 1.25 5 3 C5 4.32 5 5.64 5 7 C3.35 6.67 1.7 6.34 0 6 C-0.38218767 4.34385343 -0.71395102 2.67542976 -1 1 C-0.67 0.67 -0.34 0.34 0 0 Z " fill="#E21E28" transform="translate(225,339)"/>
<path d="M0 0 C1.32 0 2.64 0 4 0 C4 1.32 4 2.64 4 4 C3.030625 4.12375 2.06125 4.2475 1.0625 4.375 C-0.4534375 4.684375 -0.4534375 4.684375 -2 5 C-2.33 5.66 -2.66 6.32 -3 7 C-2.25 2.25 -2.25 2.25 0 0 Z " fill="#E51D26" transform="translate(184,558)"/>
<path d="M0 0 C2.83980157 2.83980157 3.63474926 6.03094193 4 10 C2.625 12 2.625 12 1 13 C0 12 0 12 -0.09765625 9.27734375 C-0.08605469 8.17519531 -0.07445312 7.07304687 -0.0625 5.9375 C-0.05347656 4.83277344 -0.04445313 3.72804687 -0.03515625 2.58984375 C-0.02355469 1.73519531 -0.01195312 0.88054687 0 0 Z " fill="#DF4C55" transform="translate(501,171)"/>
<path d="M0 0 C1.7074998 1.28062485 3.37373596 2.61767557 5 4 C5 4.66 5 5.32 5 6 C-1.0546875 6.9765625 -1.0546875 6.9765625 -3 7 C-3.66 6.34 -4.32 5.68 -5 5 C-3.02 5 -1.04 5 1 5 C0.67 3.35 0.34 1.7 0 0 Z " fill="#C8444E" transform="translate(250,537)"/>
<path d="M0 0 C4 4.75 4 4.75 4 7 C4.99 7.33 5.98 7.66 7 8 C6.67 8.99 6.34 9.98 6 11 C2.71211176 7.88983545 0.16264012 4.98381075 -2 1 C-1.34 0.67 -0.68 0.34 0 0 Z " fill="#D13D49" transform="translate(211,469)"/>
<path d="M0 0 C1.98 0.495 1.98 0.495 4 1 C4.6875 2.8125 4.6875 2.8125 5 5 C3.5625 6.75 3.5625 6.75 2 8 C0.4375 6.25 0.4375 6.25 -1 4 C-0.6875 1.75 -0.6875 1.75 0 0 Z " fill="#F02832" transform="translate(428,291)"/>
<path d="M0 0 C4.571279 0.54855348 8.67435795 1.41744803 13 3 C11.02 3.99 11.02 3.99 9 5 C8.67 4.34 8.34 3.68 8 3 C5.36 3 2.72 3 0 3 C0 2.01 0 1.02 0 0 Z " fill="#D86167" transform="translate(365,48)"/>
<path d="M0 0 C0.66 0.33 1.32 0.66 2 1 C-0.23407889 4.35111834 -1.26215824 5.81553956 -5.25 6.8125 C-6.61125 6.9053125 -6.61125 6.9053125 -8 7 C-5.42215154 4.35247996 -3.08351902 2.05567935 0 0 Z " fill="#DA6B71" transform="translate(179,547)"/>
<path d="M0 0 C-0.33 0.66 -0.66 1.32 -1 2 C-0.34 2.66 0.32 3.32 1 4 C-1.97 3.67 -4.94 3.34 -8 3 C-8 2.01 -8 1.02 -8 0 C-4.71023192 -1.09658936 -3.28696233 -0.79953138 0 0 Z " fill="#E23C45" transform="translate(206,538)"/>
<path d="M0 0 C5.875 4.625 5.875 4.625 7 8 C5.02 8 3.04 8 1 8 C1.33 6.68 1.66 5.36 2 4 C1.34 3.67 0.68 3.34 0 3 C0 2.01 0 1.02 0 0 Z " fill="#D94F59" transform="translate(243,529)"/>
<path d="M0 0 C2.0625 2.3125 2.0625 2.3125 4 5 C3.67 5.99 3.34 6.98 3 8 C0.525 7.01 0.525 7.01 -2 6 C-1.125 1.125 -1.125 1.125 0 0 Z " fill="#DC222F" transform="translate(407,326)"/>
<path d="M0 0 C4.1984359 -0.34986966 5.77469987 0.39895151 9 3 C11.14733927 3.70514846 11.14733927 3.70514846 13 4 C13 4.66 13 5.32 13 6 C11.01739401 5.57835981 9.03892755 5.13721222 7.0625 4.6875 C5.96035156 4.44386719 4.85820312 4.20023438 3.72265625 3.94921875 C2.82417969 3.63597656 1.92570312 3.32273438 1 3 C0.67 2.01 0.34 1.02 0 0 Z " fill="#CC333E" transform="translate(340,135)"/>
<path d="M0 0 C2.75 -0.25 2.75 -0.25 6 0 C8.375 2 8.375 2 10 4 C7 5 7 5 5.17578125 4.22265625 C3.45052083 3.1484375 1.72526042 2.07421875 0 1 C0 0.67 0 0.34 0 0 Z " fill="#D43A44" transform="translate(179,613)"/>
<path d="M0 0 C2.21654627 1.02911077 4.10869177 2.08234225 6.0625 3.5625 C8.04181496 5.18688728 8.04181496 5.18688728 11 6 C10.34 7.32 9.68 8.64 9 10 C7.49702124 8.52386015 5.99768715 7.04400843 4.5 5.5625 C3.6646875 4.73878906 2.829375 3.91507813 1.96875 3.06640625 C0 1 0 1 0 0 Z " fill="#CD3D45" transform="translate(296,563)"/>
<path d="M0 0 C4.99275057 1.27721526 7.57611908 3.17330957 11 7 C10.34 7.66 9.68 8.32 9 9 C7.49704815 7.69088122 5.99770689 6.37761608 4.5 5.0625 C3.6646875 4.33160156 2.829375 3.60070312 1.96875 2.84765625 C1.3190625 2.23792969 0.669375 1.62820313 0 1 C0 0.67 0 0.34 0 0 Z " fill="#D3434C" transform="translate(437,564)"/>
<path d="M0 0 C-0.33 1.32 -0.66 2.64 -1 4 C-2.98 4.33 -4.96 4.66 -7 5 C-6.625 3.0625 -6.625 3.0625 -6 1 C-4 0 -4 0 0 0 Z " fill="#E31D27" transform="translate(245,497)"/>
<path d="M0 0 C1.98 0.66 3.96 1.32 6 2 C5.34 3.32 4.68 4.64 4 6 C2.68 5.67 1.36 5.34 0 5 C0 3.35 0 1.7 0 0 Z " fill="#ED2831" transform="translate(348,392)"/>
<path d="M0 0 C0.66 0 1.32 0 2 0 C2.33 2.97 2.66 5.94 3 9 C1.68 8.67 0.36 8.34 -1 8 C-0.67 5.36 -0.34 2.72 0 0 Z " fill="#DA313A" transform="translate(199,295)"/>
<path d="M0 0 C-0.66 0 -1.32 0 -2 0 C-2 0.66 -2 1.32 -2 2 C-6.29 2 -10.58 2 -15 2 C-15 1.67 -15 1.34 -15 1 C-13.25215171 0.63536268 -11.50159498 0.2836922 -9.75 -0.0625 C-8.28820312 -0.35833984 -8.28820312 -0.35833984 -6.796875 -0.66015625 C-4.131881 -0.98397535 -2.51128277 -0.85503199 0 0 Z " fill="#D65057" transform="translate(385,617)"/>
<path d="M0 0 C2.55803184 3.83704776 4.34505724 7.75712791 3.625 12.4375 C3.41875 12.953125 3.2125 13.46875 3 14 C3 13.01 3 12.02 3 11 C2.34 11 1.68 11 1 11 C-0.28317892 7.15046324 -0.06643637 4.05261865 0 0 Z " fill="#DA6369" transform="translate(505,182)"/>
<path d="M0 0 C2.31 0 4.62 0 7 0 C6.67 1.32 6.34 2.64 6 4 C4.35 4.33 2.7 4.66 1 5 C0.67 3.35 0.34 1.7 0 0 Z " fill="#EE2737" transform="translate(450,108)"/>
<path d="M0 0 C0.66 0.33 1.32 0.66 2 1 C1.6875 2.875 1.6875 2.875 1 5 C0.01 5.66 -0.98 6.32 -2 7 C-2.99 6.34 -3.98 5.68 -5 5 C-3.35 3.35 -1.7 1.7 0 0 Z " fill="#D8404A" transform="translate(185,85)"/>
<path d="M0 0 C2 1 2 1 3.125 4.0625 C3.41375 5.031875 3.7025 6.00125 4 7 C2.68 7.33 1.36 7.66 0 8 C-0.66 5.69 -1.32 3.38 -2 1 C-1.34 0.67 -0.68 0.34 0 0 Z " fill="#E93642" transform="translate(220,62)"/>
<path d="M0 0 C0.33 0 0.66 0 1 0 C1.19477739 1.62414378 1.38059458 3.24936423 1.5625 4.875 C1.66691406 5.77992188 1.77132813 6.68484375 1.87890625 7.6171875 C2 10 2 10 1 12 C-0.32 11.67 -1.64 11.34 -3 11 C-2.34 10.01 -1.68 9.02 -1 8 C-0.54860541 5.9507906 -0.54860541 5.9507906 -0.375 3.8125 C-0.25125 2.554375 -0.1275 1.29625 0 0 Z " fill="#DC6167" transform="translate(449,577)"/>
<path d="M0 0 C0.66 0 1.32 0 2 0 C3.28317892 3.84953676 3.06643637 6.94738135 3 11 C0.60236815 8.60236815 0.65719414 7.66726502 0.375 4.375 C0.30023438 3.55773437 0.22546875 2.74046875 0.1484375 1.8984375 C0.09945312 1.27195312 0.05046875 0.64546875 0 0 Z " fill="#D03F4A" transform="translate(112,272)"/>
<path d="M0 0 C-0.69941596 3.14737182 -1.76078698 6.02588876 -3 9 C-4.38111722 6.7252187 -5.05694702 5.49828639 -4.75 2.8125 C-3.70061638 0.27648959 -2.68343584 0 0 0 Z " fill="#DA3A47" transform="translate(135,150)"/>
<path d="M0 0 C1.98 0.495 1.98 0.495 4 1 C4.33 2.32 4.66 3.64 5 5 C4.01 5.495 4.01 5.495 3 6 C0.875 5.0625 0.875 5.0625 -1 4 C-0.67 2.68 -0.34 1.36 0 0 Z " fill="#DA343F" transform="translate(442,90)"/>
<path d="M0 0 C3.91211733 1.15585285 6.8745041 2.35534962 10 5 C4.60158311 5.49076517 4.60158311 5.49076517 1.625 3.0625 C0 1 0 1 0 0 Z " fill="#DA5D67" transform="translate(192,600)"/>
<path d="M0 0 C0.99 0 1.98 0 3 0 C4.76462683 3.08809695 5 4.23312136 5 8 C5.66 8.33 6.32 8.66 7 9 C6.01 9 5.02 9 4 9 C0 2.25 0 2.25 0 0 Z " fill="#D1515A" transform="translate(158,396)"/>
<path d="M0 0 C2.5 2.3125 2.5 2.3125 5 5 C5 5.99 5 6.98 5 8 C3.68 8 2.36 8 1 8 C0.67 5.36 0.34 2.72 0 0 Z " fill="#D6555D" transform="translate(220,329)"/>
<path d="M0 0 C3.60296594 -0.41176754 4.78402067 -0.1535853 7.8125 2 C8.534375 2.66 9.25625 3.32 10 4 C5.82412255 5.39195915 3.86525224 3.82323219 0 2 C0 1.34 0 0.68 0 0 Z " fill="#CD3D44" transform="translate(358,142)"/>
<path d="M0 0 C2.64752004 2.57784846 4.94432065 4.91648098 7 8 C4 8 4 8 1 6 C0.3125 2.875 0.3125 2.875 0 0 Z " fill="#D14550" transform="translate(463,110)"/>
<path d="M0 0 C0 0.66 0 1.32 0 2 C-1.98 2.33 -3.96 2.66 -6 3 C-6.33 4.32 -6.66 5.64 -7 7 C-8.32 6.34 -9.64 5.68 -11 5 C-2.29032258 0 -2.29032258 0 0 0 Z " fill="#D6252C" transform="translate(260,48)"/>
<path d="M0 0 C0.33 0.66 0.66 1.32 1 2 C0.34 2 -0.32 2 -1 2 C-0.67 2.99 -0.34 3.98 0 5 C-3.36541838 6.08174162 -4.29847322 5.92538169 -8 5 C-4.04 2.525 -4.04 2.525 0 0 Z " fill="#DF626B" transform="translate(440,594)"/>
<path d="M0 0 C3.3 0.33 6.6 0.66 10 1 C9.01 2.485 9.01 2.485 8 4 C3.91927658 3.44855089 3.08669204 3.08669204 0 0 Z " fill="#C8424C" transform="translate(306,573)"/>
<path d="M0 0 C-1.7902061 0.67057887 -3.58221489 1.3363469 -5.375 2 C-6.37273437 2.37125 -7.37046875 2.7425 -8.3984375 3.125 C-11 4 -11 4 -13 4 C-12.67 3.01 -12.34 2.02 -12 1 C-10.29296875 0.234375 -10.29296875 0.234375 -8.1875 -0.25 C-7.50042969 -0.42015625 -6.81335938 -0.5903125 -6.10546875 -0.765625 C-3.80500179 -1.02170666 -2.19370273 -0.69015367 0 0 Z " fill="#C73F48" transform="translate(216,552)"/>
<path d="M0 0 C0.33 0.66 0.66 1.32 1 2 C0.67 2.66 0.34 3.32 0 4 C2.97 4.495 2.97 4.495 6 5 C6 5.33 6 5.66 6 6 C-0.75 6.125 -0.75 6.125 -3 5 C-1.125 1.125 -1.125 1.125 0 0 Z " fill="#C5525A" transform="translate(372,538)"/>
<path d="M0 0 C0.33 0.99 0.66 1.98 1 3 C-1.8125 3.625 -1.8125 3.625 -5 4 C-5.99 3.34 -6.98 2.68 -8 2 C-5.09399739 0.74335022 -3.20395416 0 0 0 Z " fill="#DD5962" transform="translate(198,539)"/>
<path d="M0 0 C2.31 0.66 4.62 1.32 7 2 C7 3.65 7 5.3 7 7 C5.83040013 6.02433888 4.66438823 5.044375 3.5 4.0625 C2.8503125 3.51722656 2.200625 2.97195313 1.53125 2.41015625 C1.0259375 1.94480469 0.520625 1.47945312 0 1 C0 0.67 0 0.34 0 0 Z " fill="#D85E66" transform="translate(270,539)"/>
<path d="M0 0 C3.7952131 1.49097658 5.61042731 3.75700849 8 7 C5 7 5 7 2.3125 4.625 C0 2 0 2 0 0 Z " fill="#D65A61" transform="translate(263,531)"/>
<path d="M0 0 C0.66 0.33 1.32 0.66 2 1 C-0.97 4.96 -0.97 4.96 -4 9 C-5 6 -5 6 -5 3 C-3.68 3 -2.36 3 -1 3 C-0.67 2.01 -0.34 1.02 0 0 Z " fill="#D24551" transform="translate(413,470)"/>
<path d="M0 0 C0.99 0.33 1.98 0.66 3 1 C3 2.32 3 3.64 3 5 C3.99 5.33 4.98 5.66 6 6 C5.67 7.32 5.34 8.64 5 10 C2.35534962 6.8745041 1.15585285 3.91211733 0 0 Z " fill="#D6555B" transform="translate(138,358)"/>
<path d="M0 0 C3.81684226 1.55500981 6.19195732 4.03595495 9 7 C7.68 7 6.36 7 5 7 C5 6.34 5 5.68 5 5 C4.360625 4.731875 3.72125 4.46375 3.0625 4.1875 C1 3 1 3 0 0 Z " fill="#CF5358" transform="translate(234,344)"/>
<path d="M0 0 C1.17539996 0.92652701 2.34010577 1.86663387 3.5 2.8125 C4.1496875 3.33457031 4.799375 3.85664063 5.46875 4.39453125 C7 6 7 6 7 9 C0.70535714 4.17857143 0.70535714 4.17857143 0 0 Z " fill="#D65961" transform="translate(226,336)"/>
<path d="M0 0 C0.66 0 1.32 0 2 0 C3.75 2.25 3.75 2.25 5 5 C4.1875 7.3125 4.1875 7.3125 3 9 C3 8.01 3 7.02 3 6 C2.34 6 1.68 6 1 6 C0.67 4.02 0.34 2.04 0 0 Z " fill="#D54851" transform="translate(206,310)"/>
<path d="M0 0 C0.66 1.32 1.32 2.64 2 4 C0.68 4 -0.64 4 -2 4 C-2.33 4.66 -2.66 5.32 -3 6 C-3.66 5.67 -4.32 5.34 -5 5 C-4.67 3.68 -4.34 2.36 -4 1 C-2.02 1.495 -2.02 1.495 0 2 C0 1.34 0 0.68 0 0 Z " fill="#E4333B" transform="translate(200,205)"/>
<path d="M0 0 C-1.28610235 2.5722047 -2.33393981 3.00974907 -5 4 C-7.25 3.625 -7.25 3.625 -9 3 C-8 1 -8 1 -5.0625 -0.1875 C-2 -1 -2 -1 0 0 Z " fill="#DA5F67" transform="translate(245,53)"/>
<path d="M0 0 C0 0.33 0 0.66 0 1 C-1.45635371 1.22174933 -2.91522956 1.42698698 -4.375 1.625 C-5.18710937 1.74101563 -5.99921875 1.85703125 -6.8359375 1.9765625 C-7.55007813 1.98429688 -8.26421875 1.99203125 -9 2 C-9.66 1.34 -10.32 0.68 -11 0 C-6.94952424 -1.35015859 -4.2079832 -0.62084998 0 0 Z " fill="#D33F47" transform="translate(384,634)"/>
<path d="M0 0 C3.63 0.33 7.26 0.66 11 1 C10.67 1.99 10.34 2.98 10 4 C6.7 3.01 3.4 2.02 0 1 C0 0.67 0 0.34 0 0 Z " fill="#CF3B44" transform="translate(411,552)"/>
<path d="M0 0 C-1.39332574 3.36720387 -2.9789286 4.9859524 -6 7 C-6.33 6.01 -6.66 5.02 -7 4 C-6.34 4 -5.68 4 -5 4 C-5 3.34 -5 2.68 -5 2 C-2 0 -2 0 0 0 Z " fill="#D14349" transform="translate(387,503)"/>
<path d="M0 0 C0.33 0 0.66 0 1 0 C1.33 2.64 1.66 5.28 2 8 C1.01 8 0.02 8 -1 8 C-1.33 6.35 -1.66 4.7 -2 3 C-1.34 2.67 -0.68 2.34 0 2 C0 1.34 0 0.68 0 0 Z " fill="#DC323E" transform="translate(198,448)"/>
<path d="M0 0 C0.33 1.32 0.66 2.64 1 4 C-0.98 5.32 -2.96 6.64 -5 8 C-5 5 -5 5 -2.5 2.3125 C-1.675 1.549375 -0.85 0.78625 0 0 Z " fill="#E38188" transform="translate(404,328)"/>
<path d="M0 0 C1.32 0.33 2.64 0.66 4 1 C4.33 3.64 4.66 6.28 5 9 C0.57142857 3.85714286 0.57142857 3.85714286 0 0 Z " fill="#E0212A" transform="translate(194,289)"/>
<path d="M0 0 C0.33 0 0.66 0 1 0 C1 4.29 1 8.58 1 13 C-0.32 12.34 -1.64 11.68 -3 11 C-2.34 11 -1.68 11 -1 11 C-0.67 7.37 -0.34 3.74 0 0 Z " fill="#DD2932" transform="translate(512,224)"/>
<path d="M0 0 C1.65 0.33 3.3 0.66 5 1 C4 3 4 3 2 6 C1.01 5.34 0.02 4.68 -1 4 C-0.67 2.68 -0.34 1.36 0 0 Z " fill="#DC1E25" transform="translate(247,145)"/>
<path d="M0 0 C0.99 0 1.98 0 3 0 C3.66 2.64 4.32 5.28 5 8 C4.01 8.33 3.02 8.66 2 9 C2.04125 8.2575 2.0825 7.515 2.125 6.75 C1.99601866 3.91241048 1.42948778 2.41226062 0 0 Z " fill="#DF202A" transform="translate(460,110)"/>
<path d="M0 0 C0.66 0 1.32 0 2 0 C1.43628586 3.26954202 0.50037734 4.82575883 -2 7 C-2.99 6.67 -3.98 6.34 -5 6 C-3.38405168 3.95880212 -1.7143618 1.95927063 0 0 Z " fill="#D44F5A" transform="translate(159,111)"/>
<path d="M0 0 C2.97 0 5.94 0 9 0 C9 0.66 9 1.32 9 2 C9.66 2.33 10.32 2.66 11 3 C9.741875 2.87625 8.48375 2.7525 7.1875 2.625 C6.12595703 2.52058594 6.12595703 2.52058594 5.04296875 2.4140625 C3 2 3 2 0 0 Z " fill="#D14851" transform="translate(211,627)"/>
<path d="M0 0 C3.82946843 1.45255699 5.12050295 3.42895561 7 7 C6.01 7 5.02 7 4 7 C0 2.65714286 0 2.65714286 0 0 Z " fill="#D55660" transform="translate(160,595)"/>
<path d="M0 0 C1.32 0.33 2.64 0.66 4 1 C4 3.97 4 6.94 4 10 C3.67 10 3.34 10 3 10 C3 8.02 3 6.04 3 4 C2.34 4 1.68 4 1 4 C0.67 2.68 0.34 1.36 0 0 Z " fill="#CF3A44" transform="translate(447,573)"/>
<path d="M0 0 C2.4375 0.8125 2.4375 0.8125 5 2 C5.33 2.99 5.66 3.98 6 5 C6.66 5 7.32 5 8 5 C7.67 5.99 7.34 6.98 7 8 C5.83035398 6.8572081 4.66435444 5.71068285 3.5 4.5625 C2.8503125 3.92441406 2.200625 3.28632812 1.53125 2.62890625 C0 1 0 1 0 0 Z " fill="#C9404B" transform="translate(251,519)"/>
<path d="M0 0 C0.66 0.33 1.32 0.66 2 1 C0.35830472 3.02054804 -1.30911778 5.02043058 -3 7 C-3.33 7 -3.66 7 -4 7 C-4 5.35 -4 3.7 -4 2 C-2.125 0.9375 -2.125 0.9375 0 0 Z " fill="#D03641" transform="translate(399,487)"/>
<path d="M0 0 C1.8125 0.1875 1.8125 0.1875 4 1 C5.75 3.5625 5.75 3.5625 7 6 C6.01 6 5.02 6 4 6 C1.8125 3 1.8125 3 0 0 Z " fill="#CD3F4A" transform="translate(217,480)"/>
<path d="M0 0 C0.33 0.99 0.66 1.98 1 3 C1.99 2.67 2.98 2.34 4 2 C4.33 2.99 4.66 3.98 5 5 C4.34 5 3.68 5 3 5 C3.33 5.99 3.66 6.98 4 8 C3.01 8 2.02 8 1 8 C0.67 5.36 0.34 2.72 0 0 Z " fill="#D92F39" transform="translate(163,400)"/>
<path d="M0 0 C3.91211733 1.15585285 6.8745041 2.35534962 10 5 C9.01 5.33 8.02 5.66 7 6 C7 5.34 7 4.68 7 4 C4.03 3.505 4.03 3.505 1 3 C0.67 2.01 0.34 1.02 0 0 Z " fill="#CE4950" transform="translate(252,357)"/>
<path d="M0 0 C1.65 0 3.3 0 5 0 C3.35 1.98 1.7 3.96 0 6 C-0.66 5.67 -1.32 5.34 -2 5 C-1.34 3.35 -0.68 1.7 0 0 Z " fill="#C62C36" transform="translate(224,167)"/>
<path d="M0 0 C-2.76223278 2.76223278 -5.20706617 2.57856291 -9 3 C-7.01532024 -0.96935951 -3.9567243 -1.41311582 0 0 Z " fill="#D8222B" transform="translate(238,58)"/>
<path d="M0 0 C0.33 0.66 0.66 1.32 1 2 C3.01669827 3.13350534 3.01669827 3.13350534 5 4 C4.67 4.66 4.34 5.32 4 6 C0.83884224 4.63016497 0.0072908 4.0109362 -2 1 C-1.34 0.67 -0.68 0.34 0 0 Z " fill="#D64551" transform="translate(168,602)"/>
<path d="M0 0 C0 0.66 0 1.32 0 2 C-0.99 2 -1.98 2 -3 2 C-3 2.66 -3 3.32 -3 4 C-4.98 4.33 -6.96 4.66 -9 5 C-6.45523312 2.20075644 -3.92372883 0 0 0 Z " fill="#DF7D83" transform="translate(190,542)"/>
<path d="M0 0 C2.97 0.495 2.97 0.495 6 1 C4.8125 2.5625 4.8125 2.5625 3 4 C0.3125 3.6875 0.3125 3.6875 -2 3 C-1.34 2.67 -0.68 2.34 0 2 C0 1.34 0 0.68 0 0 Z " fill="#E14A53" transform="translate(418,536)"/>
<path d="M0 0 C0 0.99 0 1.98 0 3 C-2.97 3 -5.94 3 -9 3 C-5.73209435 0.82139623 -3.91954654 0 0 0 Z " fill="#D75D65" transform="translate(212,534)"/>
<path d="M0 0 C1.32 0 2.64 0 4 0 C3.6875 1.875 3.6875 1.875 3 4 C2.01 4.66 1.02 5.32 0 6 C0 4.02 0 2.04 0 0 Z " fill="#D63B49" transform="translate(371,515)"/>
<path d="M0 0 C0.66 0 1.32 0 2 0 C1.74438677 2.3431213 1.40729228 4.67843403 1 7 C0.01 7.495 0.01 7.495 -1 8 C-1.125 2.25 -1.125 2.25 0 0 Z " fill="#D43842" transform="translate(459,401)"/>
<path d="M0 0 C0.66 0.33 1.32 0.66 2 1 C1.1875 2.9375 1.1875 2.9375 0 5 C-0.99 5.33 -1.98 5.66 -3 6 C-3.66 5.34 -4.32 4.68 -5 4 C-3.35 2.68 -1.7 1.36 0 0 Z " fill="#DB6771" transform="translate(384,347)"/>
<path d="M0 0 C1.98 0.99 1.98 0.99 4 2 C4 4.31 4 6.62 4 9 C1.49701566 6.06171403 0.53069061 3.82097239 0 0 Z " fill="#D5515D" transform="translate(130,339)"/>
<path d="M0 0 C1.4606285 2.64738916 2 3.89448334 2 7 C0.68 7 -0.64 7 -2 7 C-1.125 1.125 -1.125 1.125 0 0 Z " fill="#DD202A" transform="translate(219,329)"/>
<path d="M0 0 C1.9375 0.625 1.9375 0.625 4 2 C4.75 5.125 4.75 5.125 5 8 C2.27573689 5.64722731 1.1858237 3.37503669 0 0 Z " fill="#D4545E" transform="translate(412,188)"/>
<path d="M0 0 C2.86724686 0.57344937 3.8614515 0.8614515 6 3 C6 3.66 6 4.32 6 5 C4.35 4.67 2.7 4.34 1 4 C0.67 2.68 0.34 1.36 0 0 Z " fill="#DE1E29" transform="translate(397,166)"/>
<path d="M0 0 C3.24208567 0.35049575 4.61527704 0.56221181 6.8125 3.0625 C7.204375 3.701875 7.59625 4.34125 8 5 C5 5 5 5 2.3125 2.5 C1.549375 1.675 0.78625 0.85 0 0 Z " fill="#D2555C" transform="translate(385,159)"/>
<path d="M0 0 C0.99 0 1.98 0 3 0 C3 2.31 3 4.62 3 7 C1.68 5.68 0.36 4.36 -1 3 C-0.67 2.01 -0.34 1.02 0 0 Z " fill="#E8272F" transform="translate(237,149)"/>
<path d="M0 0 C0.33 1.32 0.66 2.64 1 4 C0.01 4.33 -0.98 4.66 -2 5 C-2.73323796 7.01508358 -2.73323796 7.01508358 -3 9 C-3.66 9 -4.32 9 -5 9 C-3.7508258 5.54074837 -2.32472205 2.85306797 0 0 Z " fill="#D15162" transform="translate(147,126)"/>
<path d="M0 0 C1.32 0 2.64 0 4 0 C3.67 0.99 3.34 1.98 3 3 C0.4375 4.1875 0.4375 4.1875 -2 5 C-2 4.01 -2 3.02 -2 2 C-1.34 2 -0.68 2 0 2 C0 1.34 0 0.68 0 0 Z " fill="#D5464F" transform="translate(441,612)"/>
<path d="M0 0 C2.31 0.66 4.62 1.32 7 2 C7 2.99 7 3.98 7 5 C3.34683329 3.75023244 2.21934164 3.32901247 0 0 Z " fill="#D2444B" transform="translate(172,608)"/>
<path d="M0 0 C1.32 0.66 2.64 1.32 4 2 C2.68 3.32 1.36 4.64 0 6 C-1.125 2.25 -1.125 2.25 0 0 Z " fill="#DA424A" transform="translate(179,565)"/>
<path d="M0 0 C1.875 0.1875 1.875 0.1875 4 1 C5.25 3.5625 5.25 3.5625 6 6 C1.125 3.375 1.125 3.375 0 0 Z " fill="#D86C73" transform="translate(458,560)"/>
<path d="M0 0 C6.75 0.875 6.75 0.875 9 2 C8.67 2.66 8.34 3.32 8 4 C2.25 2.25 2.25 2.25 0 0 Z " fill="#DB232A" transform="translate(407,549)"/>
<path d="M0 0 C0 0.99 0 1.98 0 3 C-0.99 3.33 -1.98 3.66 -3 4 C-3.99 2.68 -4.98 1.36 -6 0 C-3 -1 -3 -1 0 0 Z " fill="#D32830" transform="translate(285,547)"/>
<path d="M0 0 C2.0625 0.4375 2.0625 0.4375 4 1 C4.33 2.32 4.66 3.64 5 5 C3.35 4.67 1.7 4.34 0 4 C-0.33 3.01 -0.66 2.02 -1 1 C-0.67 0.67 -0.34 0.34 0 0 Z " fill="#DA4A54" transform="translate(436,543)"/>
<path d="M0 0 C0.99 0.33 1.98 0.66 3 1 C3.6875 3.0625 3.6875 3.0625 4 5 C3.01 5.66 2.02 6.32 1 7 C0.67 4.69 0.34 2.38 0 0 Z " fill="#D72730" transform="translate(377,506)"/>
<path d="M0 0 C1.875 0.1875 1.875 0.1875 4 1 C5.25 3.5625 5.25 3.5625 6 6 C5.01 6 4.02 6 3 6 C2.01 4.02 1.02 2.04 0 0 Z " fill="#D54451" transform="translate(180,431)"/>
<path d="M0 0 C3 1 3 1 5 4 C4.625 6.1875 4.625 6.1875 4 8 C0 2.25 0 2.25 0 0 Z " fill="#D44E58" transform="translate(166,409)"/>
<path d="M0 0 C0 0.66 0 1.32 0 2 C-3.21451269 3.60725635 -6.43612536 3.05748185 -10 3 C-6.59538535 1.23899242 -3.90650339 0 0 0 Z " fill="#D2525B" transform="translate(352,366)"/>
<path d="M0 0 C0.99 0.33 1.98 0.66 3 1 C2.67 2.32 2.34 3.64 2 5 C0.68 4.34 -0.64 3.68 -2 3 C-1 1 -1 1 0 0 Z " fill="#EE2A33" transform="translate(440,303)"/>
<path d="M0 0 C0.33 0 0.66 0 1 0 C1.36923077 6.52307692 1.36923077 6.52307692 -0.5 8.9375 C-0.995 9.288125 -1.49 9.63875 -2 10 C-2.22036864 6.14354879 -1.60355101 3.50776784 0 0 Z " fill="#D4212A" transform="translate(509,201)"/>
<path d="M0 0 C0.99 0.33 1.98 0.66 3 1 C1.35 2.32 -0.3 3.64 -2 5 C-2.99 4.34 -3.98 3.68 -5 3 C-2.6875 1.4375 -2.6875 1.4375 0 0 Z " fill="#D43E49" transform="translate(247,150)"/>
<path d="M0 0 C2.5 2.3125 2.5 2.3125 5 5 C5 5.99 5 6.98 5 8 C4.67 7.34 4.34 6.68 4 6 C3.01 5.67 2.02 5.34 1 5 C0.67 3.35 0.34 1.7 0 0 Z " fill="#D65862" transform="translate(457,103)"/>
<path d="M0 0 C2.97 0 5.94 0 9 0 C8.67 0.99 8.34 1.98 8 3 C5.36 2.34 2.72 1.68 0 1 C0 0.67 0 0.34 0 0 Z " fill="#D02331" transform="translate(331,43)"/>
</svg>
